<?xml version="1.0" encoding="UTF-8" standalone="no"?>
<!-- Created with Inkscape (http://www.inkscape.org/) -->

<svg
   width="1280"
   height="640"
   viewBox="0 0 106.66667 53.333335"
   version="1.1"
   id="svg1"
   inkscape:version="1.3.2 (091e20ef0f, 2023-11-25, custom)"
   sodipodi:docname="social2.svg"
   xml:space="preserve"
   inkscape:export-filename="social.png"
   inkscape:export-xdpi="96"
   inkscape:export-ydpi="96"
   xmlns:inkscape="http://www.inkscape.org/namespaces/inkscape"
   xmlns:sodipodi="http://sodipodi.sourceforge.net/DTD/sodipodi-0.dtd"
   xmlns:xlink="http://www.w3.org/1999/xlink"
   xmlns="http://www.w3.org/2000/svg"
   xmlns:svg="http://www.w3.org/2000/svg"
   xmlns:ns5="http://www.iki.fi/pav/software/textext/"><sodipodi:namedview
     id="namedview1"
     pagecolor="#ffffff"
     bordercolor="#000000"
     borderopacity="0.25"
     inkscape:showpageshadow="2"
     inkscape:pageopacity="0.0"
     inkscape:pagecheckerboard="0"
     inkscape:deskcolor="#d1d1d1"
     inkscape:document-units="mm"
     inkscape:zoom="0.67704825"
     inkscape:cx="584.89184"
     inkscape:cy="450.48488"
     inkscape:window-width="1536"
     inkscape:window-height="896"
     inkscape:window-x="0"
     inkscape:window-y="0"
     inkscape:window-maximized="1"
     inkscape:current-layer="svg1" /><defs
     id="defs1"><linearGradient
       id="linearGradient3"
       inkscape:collect="always"><stop
         style="stop-color:#174858;stop-opacity:1;"
         offset="0"
         id="stop3" /><stop
         style="stop-color:#0e2a35;stop-opacity:1;"
         offset="1"
         id="stop4" /></linearGradient><linearGradient
       id="linearGradient1"
       inkscape:collect="always"><stop
         style="stop-color:#4c566a;stop-opacity:1;"
         offset="0"
         id="stop1" /><stop
         style="stop-color:#2e3440;stop-opacity:1;"
         offset="1"
         id="stop2" /></linearGradient><linearGradient
       inkscape:collect="always"
       xlink:href="#linearGradient1"
       id="linearGradient2"
       x1="0.69626588"
       y1="0.69626498"
       x2="86.336777"
       y2="48.738503"
       gradientUnits="userSpaceOnUse" /><linearGradient
       inkscape:collect="always"
       xlink:href="#linearGradient3"
       id="linearGradient4"
       x1="56.618317"
       y1="6.7695813"
       x2="76.557816"
       y2="32.617077"
       gradientUnits="userSpaceOnUse" /></defs><rect
     style="fill:url(#linearGradient2);stroke-width:0.0110833;stroke-linejoin:round;fill-opacity:1"
     id="rect1"
     width="106.66667"
     height="53.333336"
     x="2.7755576e-17"
     y="5.5511151e-17" /><g
     inkscape:label="Layer 1"
     inkscape:groupmode="layer"
     id="layer1" /><text
     xml:space="preserve"
     style="font-style:normal;font-variant:normal;font-weight:normal;font-stretch:normal;font-size:6.35px;font-family:'ComicShannsMono Nerd Font';-inkscape-font-specification:'ComicShannsMono Nerd Font';opacity:1;fill:#e5e9f0;fill-opacity:1;stroke:none;stroke-width:0.0351896;stroke-linejoin:round"
     x="11.376164"
     y="9.6529455"
     id="text1"><tspan
       sodipodi:role="line"
       id="tspan1"
       style="font-style:normal;font-variant:normal;font-weight:normal;font-stretch:normal;font-size:6.35px;font-family:'ComicShannsMono Nerd Font';-inkscape-font-specification:'ComicShannsMono Nerd Font';fill:#e5e9f0;fill-opacity:1;stroke:none;stroke-width:0.0351896"
       x="11.376164"
       y="9.6529455">$1_{\mathrm{i}}\sqrt{e}$</tspan></text><g
     id="g6"
     transform="matrix(1.2884581,0,0,1.2884581,-23.058674,-7.4749856)" /><g
     id="g8"
     transform="translate(0,-3.3333338)"><g
       transform="matrix(1.8310268,0,0,1.8310268,35.221054,29.531819)"
       ns5:version="1.10.1"
       ns5:texconverter="pdflatex"
       ns5:pdfconverter="inkscape"
       ns5:text="$1_{\\mathrm{i}}\\sqrt{e}$"
       ns5:preamble="/usr/share/inkscape/extensions/textext/default_packages.tex"
       ns5:scale="1.0"
       ns5:alignment="middle center"
       ns5:stroke-to-path="1"
       ns5:inkscapeversion="1.3.2"
       id="g332"
       ns5:jacobian_sqrt="1.33333"
       style="fill:#ebcb8b;fill-opacity:1"><defs
   id="id-f4c0d25f-d959-4974-b44c-543053e09d71">
    <g
   id="id-8d34fd4b-3632-43b4-ae49-943735549a56">
      <g
   id="id-4d85289c-0e06-4d73-a308-cf48fa763c0f">
        <path
   d="m 2.9375,-6.375 c 0,-0.25 0,-0.265625 -0.234375,-0.265625 C 2.078125,-6 1.203125,-6 0.890625,-6 v 0.3125 c 0.203125,0 0.78125,0 1.296875,-0.265625 v 5.171875 c 0,0.359375 -0.03125,0.46875 -0.921875,0.46875 h -0.3125 V 0 c 0.34375,-0.03125 1.203125,-0.03125 1.609375,-0.03125 0.390625,0 1.265625,0 1.609375,0.03125 v -0.3125 h -0.3125 c -0.90625,0 -0.921875,-0.109375 -0.921875,-0.46875 z m 0,0"
   id="id-d49064f4-d229-465b-9d37-31265074832f" />
      </g>
      <g
   id="id-180fc116-1a32-4e17-a5ac-ee82452bc519">
        <path
   d="m 1.46875,-4.296875 c 0,-0.203125 -0.171875,-0.40625 -0.40625,-0.40625 -0.203125,0 -0.390625,0.171875 -0.390625,0.40625 0,0.25 0.203125,0.40625 0.390625,0.40625 0.234375,0 0.40625,-0.171875 0.40625,-0.40625 z M 0.40625,-3 v 0.25 c 0.4375,0 0.5,0.046875 0.5,0.390625 v 1.8125 C 0.90625,-0.25 0.84375,-0.25 0.390625,-0.25 V 0 c 0.015625,0 0.5,-0.03125 0.78125,-0.03125 0.25,0 0.5,0.015625 0.734375,0.03125 V -0.25 C 1.5,-0.25 1.4375,-0.25 1.4375,-0.546875 v -2.53125 z m 0,0"
   id="id-cf9dd267-9edd-4d56-9cca-cd53bf563c6c" />
      </g>
      <g
   id="id-b9f9ef09-70f4-455a-a3cb-6d251a88df77">
        <path
   d="m 3.875,8.515625 -1.75,-3.875 C 2.046875,4.484375 2,4.484375 1.96875,4.484375 c 0,0 -0.0625,0 -0.171875,0.078125 l -0.9375,0.71875 c -0.125,0.109375 -0.125,0.125 -0.125,0.15625 0,0.0625 0.015625,0.109375 0.09375,0.109375 0.0625,0 0.234375,-0.140625 0.34375,-0.21875 C 1.21875,5.28125 1.375,5.171875 1.484375,5.09375 l 1.96875,4.3125 C 3.515625,9.5625 3.5625,9.5625 3.65625,9.5625 c 0.15625,0 0.1875,-0.046875 0.25,-0.1875 L 8.4375,0 C 8.5,-0.140625 8.5,-0.171875 8.5,-0.203125 8.5,-0.296875 8.421875,-0.40625 8.296875,-0.40625 c -0.078125,0 -0.140625,0.0625 -0.21875,0.21875 z m 0,0"
   id="id-6c657135-29a4-4b6d-90d9-8bbb577244e3" />
      </g>
      <g
   id="id-143da10a-9027-4c5a-8c5c-8890fbdc1a17">
        <path
   d="m 1.859375,-2.296875 c 0.296875,0 1.03125,-0.03125 1.53125,-0.234375 0.703125,-0.296875 0.75,-0.890625 0.75,-1.03125 0,-0.4375 -0.375,-0.84375 -1.0625,-0.84375 -1.109375,0 -2.625,0.96875 -2.625,2.71875 0,1.015625 0.59375,1.796875 1.578125,1.796875 1.421875,0 2.25,-1.0625 2.25,-1.171875 0,-0.0625 -0.046875,-0.140625 -0.109375,-0.140625 -0.0625,0 -0.078125,0.03125 -0.140625,0.109375 -0.78125,0.984375 -1.875,0.984375 -1.984375,0.984375 -0.78125,0 -0.875,-0.84375 -0.875,-1.15625 0,-0.125 0.015625,-0.421875 0.15625,-1.03125 z m -0.46875,-0.21875 C 1.78125,-4.03125 2.8125,-4.1875 3.078125,-4.1875 c 0.453125,0 0.734375,0.296875 0.734375,0.625 0,1.046875 -1.59375,1.046875 -2.015625,1.046875 z m 0,0"
   id="id-b52f6e79-b3b9-4bbb-9798-d81c4b37e272" />
      </g>
    </g>
  </defs>
  <g
   fill="#000000"
   fill-opacity="1"
   id="id-7d10181a-6323-4322-b59b-36c6269ed2cf"
   transform="translate(-149.603,-127.183)"
   style="fill:#ebcb8b;fill-opacity:1">
    <g
   transform="translate(148.712,134.765)"
   id="g1039"
   style="fill:#ebcb8b;fill-opacity:1"><path
   d="m 2.9375,-6.375 c 0,-0.25 0,-0.265625 -0.234375,-0.265625 C 2.078125,-6 1.203125,-6 0.890625,-6 v 0.3125 c 0.203125,0 0.78125,0 1.296875,-0.265625 v 5.171875 c 0,0.359375 -0.03125,0.46875 -0.921875,0.46875 h -0.3125 V 0 c 0.34375,-0.03125 1.203125,-0.03125 1.609375,-0.03125 0.390625,0 1.265625,0 1.609375,0.03125 v -0.3125 h -0.3125 c -0.90625,0 -0.921875,-0.109375 -0.921875,-0.46875 z m 0,0"
   id="id-60a76dbd-a002-48c9-b6e3-2bb1442d5662"
   style="fill:#ebcb8b;fill-opacity:1" />
      </g></g>
  <g
   fill="#000000"
   fill-opacity="1"
   id="id-34c0fc45-51f8-4cd8-bcad-748bfc47227c"
   transform="translate(-149.603,-127.183)"
   style="fill:#ebcb8b;fill-opacity:1">
    <g
   transform="translate(153.694,136.259)"
   id="g670"
   style="fill:#ebcb8b;fill-opacity:1"><path
   d="m 1.46875,-4.296875 c 0,-0.203125 -0.171875,-0.40625 -0.40625,-0.40625 -0.203125,0 -0.390625,0.171875 -0.390625,0.40625 0,0.25 0.203125,0.40625 0.390625,0.40625 0.234375,0 0.40625,-0.171875 0.40625,-0.40625 z M 0.40625,-3 v 0.25 c 0.4375,0 0.5,0.046875 0.5,0.390625 v 1.8125 C 0.90625,-0.25 0.84375,-0.25 0.390625,-0.25 V 0 c 0.015625,0 0.5,-0.03125 0.78125,-0.03125 0.25,0 0.5,0.015625 0.734375,0.03125 V -0.25 C 1.5,-0.25 1.4375,-0.25 1.4375,-0.546875 v -2.53125 z m 0,0"
   id="id-6acc1ffe-9888-43c4-bea8-c5277ca9231e"
   style="fill:#ebcb8b;fill-opacity:1" />
      </g></g>
  <g
   fill="#000000"
   fill-opacity="1"
   id="id-568b5d8a-7571-4fe1-87d6-7bc50eab25d3"
   transform="translate(-149.603,-127.183)"
   style="fill:#ebcb8b;fill-opacity:1">
    <g
   transform="translate(156.447,127.589)"
   id="g9084"
   style="fill:#ebcb8b;fill-opacity:1"><path
   d="m 3.875,8.515625 -1.75,-3.875 C 2.046875,4.484375 2,4.484375 1.96875,4.484375 c 0,0 -0.0625,0 -0.171875,0.078125 l -0.9375,0.71875 c -0.125,0.109375 -0.125,0.125 -0.125,0.15625 0,0.0625 0.015625,0.109375 0.09375,0.109375 0.0625,0 0.234375,-0.140625 0.34375,-0.21875 C 1.21875,5.28125 1.375,5.171875 1.484375,5.09375 l 1.96875,4.3125 C 3.515625,9.5625 3.5625,9.5625 3.65625,9.5625 c 0.15625,0 0.1875,-0.046875 0.25,-0.1875 L 8.4375,0 C 8.5,-0.140625 8.5,-0.171875 8.5,-0.203125 8.5,-0.296875 8.421875,-0.40625 8.296875,-0.40625 c -0.078125,0 -0.140625,0.0625 -0.21875,0.21875 z m 0,0"
   id="id-cb2a0a1d-28b9-4552-a42b-68178b654c83"
   style="fill:#ebcb8b;fill-opacity:1" />
      </g></g>
  <path
   fill="none"
   stroke-width="0.398"
   stroke-linecap="butt"
   stroke-linejoin="miter"
   stroke="#000000"
   stroke-opacity="1"
   stroke-miterlimit="10"
   d="m 15.147369,0.20787811 h 4.636719"
   id="id-4c6d3dcc-dd4b-4699-94b7-55d9e098381f"
   style="fill:#ebcb8b;fill-opacity:1" />
  <g
   fill="#000000"
   fill-opacity="1"
   id="id-9904e1a2-c365-4516-b840-02d8b9cd035d"
   transform="translate(-149.603,-127.183)"
   style="fill:#ebcb8b;fill-opacity:1">
    <g
   transform="translate(164.749,134.765)"
   id="g4000"
   style="fill:#ebcb8b;fill-opacity:1"><path
   d="m 1.859375,-2.296875 c 0.296875,0 1.03125,-0.03125 1.53125,-0.234375 0.703125,-0.296875 0.75,-0.890625 0.75,-1.03125 0,-0.4375 -0.375,-0.84375 -1.0625,-0.84375 -1.109375,0 -2.625,0.96875 -2.625,2.71875 0,1.015625 0.59375,1.796875 1.578125,1.796875 1.421875,0 2.25,-1.0625 2.25,-1.171875 0,-0.0625 -0.046875,-0.140625 -0.109375,-0.140625 -0.0625,0 -0.078125,0.03125 -0.140625,0.109375 -0.78125,0.984375 -1.875,0.984375 -1.984375,0.984375 -0.78125,0 -0.875,-0.84375 -0.875,-1.15625 0,-0.125 0.015625,-0.421875 0.15625,-1.03125 z m -0.46875,-0.21875 C 1.78125,-4.03125 2.8125,-4.1875 3.078125,-4.1875 c 0.453125,0 0.734375,0.296875 0.734375,0.625 0,1.046875 -1.59375,1.046875 -2.015625,1.046875 z m 0,0"
   id="id-20e5251c-d831-4e02-983c-c12ed18aa771"
   style="fill:#ebcb8b;fill-opacity:1" />
      </g></g>
</g><g
       id="g7"><rect
         style="fill:url(#linearGradient4);fill-opacity:1;stroke:none;stroke-width:2.5758;stroke-dasharray:none;stroke-opacity:1"
         id="rect2"
         width="51.079575"
         height="16.00083"
         x="27.793549"
         y="18.666252"
         rx="6.2992129" /><g
         id="g5"
         transform="translate(-26.374534,13.913349)"><text
           xml:space="preserve"
           style="font-style:normal;font-variant:normal;font-weight:normal;font-stretch:normal;font-size:8.88889px;font-family:'ComicShannsMono Nerd Font';-inkscape-font-specification:'ComicShannsMono Nerd Font';fill:#85c8c8;fill-opacity:1;stroke-width:0.0110833;stroke-linejoin:round"
           x="71.018967"
           y="14.447485"
           id="text4"><tspan
             sodipodi:role="line"
             id="tspan4"
             style="font-size:8.88889px;fill:#85c8c8;fill-opacity:1;stroke-width:0.0110833"
             x="71.018967"
             y="14.447485">Logseq</tspan></text><g
           style="fill:none"
           id="g4"
           transform="matrix(0.17538604,0,0,0.17538604,60.273989,8.719439)"><rect
             style="fill:#0e2a35;fill-opacity:1;stroke-width:0.155956;stroke-linejoin:round"
             id="rect1-5"
             width="57.457603"
             height="53.939793"
             x="-4.2288022"
             y="-3.9698958"
             ry="11.143078"
             rx="11.143078" /><ellipse
             rx="7.0236902"
             ry="4.4279299"
             transform="matrix(0.988865,-0.148815,0.0688008,0.99763,27.0473,6.96687)"
             fill="#85c8c8"
             id="ellipse1"
             cx="0"
             cy="0" /><ellipse
             rx="6.3002901"
             ry="7.20225"
             transform="matrix(-0.495846,0.86841,-0.825718,-0.564084,9.07103,10.4006)"
             fill="#85c8c8"
             id="ellipse2"
             cx="0"
             cy="0" /><ellipse
             rx="16.608999"
             ry="13.0775"
             transform="matrix(0.987073,0.160274,-0.239143,0.970984,28.5105,29.9736)"
             fill="#85c8c8"
             id="ellipse3"
             cx="0"
             cy="0" /></g></g></g></g></svg>
