<?xml version="1.0" encoding="UTF-8" standalone="no"?>
<!-- Created with Inkscape (http://www.inkscape.org/) -->

<svg
   width="1280"
   height="640"
   viewBox="0 0 106.66667 53.333335"
   version="1.1"
   id="svg1"
   inkscape:version="1.3 (0e150ed6c4, 2023-07-21)"
   sodipodi:docname="social.svg"
   xml:space="preserve"
   inkscape:export-filename="social.png"
   inkscape:export-xdpi="96"
   inkscape:export-ydpi="96"
   xmlns:inkscape="http://www.inkscape.org/namespaces/inkscape"
   xmlns:sodipodi="http://sodipodi.sourceforge.net/DTD/sodipodi-0.dtd"
   xmlns:xlink="http://www.w3.org/1999/xlink"
   xmlns="http://www.w3.org/2000/svg"
   xmlns:svg="http://www.w3.org/2000/svg"
   xmlns:ns5="http://www.iki.fi/pav/software/textext/"><sodipodi:namedview
     id="namedview1"
     pagecolor="#ffffff"
     bordercolor="#000000"
     borderopacity="0.25"
     inkscape:showpageshadow="2"
     inkscape:pageopacity="0.0"
     inkscape:pagecheckerboard="0"
     inkscape:deskcolor="#d1d1d1"
     inkscape:document-units="mm"
     inkscape:zoom="0.67704825"
     inkscape:cx="584.89184"
     inkscape:cy="450.48488"
     inkscape:window-width="1920"
     inkscape:window-height="1010"
     inkscape:window-x="0"
     inkscape:window-y="32"
     inkscape:window-maximized="1"
     inkscape:current-layer="svg1" /><defs
     id="defs1"><linearGradient
       id="linearGradient1"
       inkscape:collect="always"><stop
         style="stop-color:#4c566a;stop-opacity:1;"
         offset="0"
         id="stop1" /><stop
         style="stop-color:#2e3440;stop-opacity:1;"
         offset="1"
         id="stop2" /></linearGradient><linearGradient
       inkscape:collect="always"
       xlink:href="#linearGradient1"
       id="linearGradient2"
       x1="0.69626588"
       y1="0.69626498"
       x2="86.336777"
       y2="48.738503"
       gradientUnits="userSpaceOnUse" /><filter
       inkscape:collect="always"
       style="color-interpolation-filters:sRGB"
       id="filter5"
       x="-0.11968914"
       y="-0.15816647"
       width="1.2393783"
       height="1.3163329"><feGaussianBlur
         inkscape:collect="always"
         stdDeviation="1.4078937"
         id="feGaussianBlur5" /></filter></defs><rect
     style="fill:url(#linearGradient2);stroke-width:0.0110833;stroke-linejoin:round;fill-opacity:1"
     id="rect1"
     width="106.66667"
     height="53.333336"
     x="2.7755576e-17"
     y="5.5511151e-17" /><g
     inkscape:label="Layer 1"
     inkscape:groupmode="layer"
     id="layer1" /><text
     xml:space="preserve"
     style="font-weight:normal;font-size:6.35px;font-family:'ComicShannsMono Nerd Font';-inkscape-font-specification:'ComicShannsMono Nerd Font';opacity:1;fill:#e5e9f0;fill-opacity:1;stroke:none;stroke-width:0.0351896;stroke-linejoin:round;font-style:normal;font-stretch:normal;font-variant:normal"
     x="7.0865922"
     y="11.122277"
     id="text1"><tspan
       sodipodi:role="line"
       id="tspan1"
       style="font-style:normal;font-variant:normal;font-weight:normal;font-stretch:normal;font-size:6.35px;font-family:'ComicShannsMono Nerd Font';-inkscape-font-specification:'ComicShannsMono Nerd Font';fill:#e5e9f0;fill-opacity:1;stroke:none;stroke-width:0.0351896"
       x="7.0865922"
       y="11.122277">$F_{\mu\nu}$</tspan></text><g
     transform="matrix(2.82222,0,0,2.82222,5.5555557,18.637139)"
     ns5:version="1.9.0"
     ns5:texconverter="pdflatex"
     ns5:pdfconverter="inkscape"
     ns5:text="$F_{\\mu\\nu}$"
     ns5:preamble="/usr/share/inkscape/extensions/textext/default_packages.tex"
     ns5:scale="8.0"
     ns5:alignment="middle center"
     ns5:stroke-to-path="0"
     id="g7359"
     ns5:jacobian_sqrt="2.82222"
     style="fill:#ebcb8b;fill-opacity:1"><defs
       id="id-caf3fa4b-ca17-4e10-b8b6-dacaa8863e27"><g
         id="id-f7785682-fcb0-41ba-883f-fcbb11f347d0"><g
           id="id-c7f2e5ba-80da-4acb-813b-a8a93b9f7b1e" /><g
           id="id-276ea80e-6c87-4b22-bfab-974db25d8c22"><path
             d="m 3.015625,-3.234375 h 0.96875 c 0.75,0 0.828125,0.15625 0.828125,0.4375 0,0.078125 0,0.1875 -0.0625,0.5 C 4.71875,-2.25 4.71875,-2.21875 4.71875,-2.1875 c 0,0.078125 0.0625,0.109375 0.109375,0.109375 0.109375,0 0.109375,-0.03125 0.15625,-0.203125 L 5.53125,-4.453125 C 5.5625,-4.5625 5.5625,-4.578125 5.5625,-4.609375 5.5625,-4.625 5.546875,-4.71875 5.4375,-4.71875 5.34375,-4.71875 5.328125,-4.671875 5.296875,-4.5 5.078125,-3.734375 4.859375,-3.546875 4,-3.546875 H 3.09375 l 0.640625,-2.53125 C 3.828125,-6.4375 3.84375,-6.46875 4.28125,-6.46875 h 1.3125 c 1.21875,0 1.453125,0.328125 1.453125,1.09375 0,0.234375 0,0.265625 -0.03125,0.546875 C 7,-4.703125 7,-4.6875 7,-4.65625 c 0,0.046875 0.03125,0.125 0.125,0.125 0.109375,0 0.109375,-0.0625 0.125,-0.25 L 7.453125,-6.515625 C 7.484375,-6.78125 7.4375,-6.78125 7.1875,-6.78125 H 2.296875 c -0.1875,0 -0.296875,0 -0.296875,0.203125 0,0.109375 0.09375,0.109375 0.28125,0.109375 0.375,0 0.65625,0 0.65625,0.171875 0,0.046875 0,0.0625 -0.0625,0.25 L 1.5625,-0.78125 c -0.09375,0.390625 -0.109375,0.46875 -0.90625,0.46875 -0.171875,0 -0.28125,0 -0.28125,0.1875 C 0.375,0 0.5,0 0.53125,0 0.8125,0 1.5625,-0.03125 1.84375,-0.03125 2.171875,-0.03125 3,0 3.328125,0 3.421875,0 3.53125,0 3.53125,-0.1875 3.53125,-0.265625 3.484375,-0.296875 3.484375,-0.296875 3.453125,-0.3125 3.421875,-0.3125 3.203125,-0.3125 c -0.21875,0 -0.265625,0 -0.515625,-0.015625 -0.296875,-0.03125 -0.328125,-0.078125 -0.328125,-0.203125 0,-0.015625 0,-0.078125 0.046875,-0.21875 z m 0,0"
             id="id-cd622e49-9ed7-4822-ab1d-1b8104b8157f" /></g><g
           id="id-f0e49906-7e62-453b-8890-ae286b3ce181" /><g
           id="id-0a76fccb-750b-4b00-a05c-c0f9b89e7cfb"><path
             d="M 0.375,1.125 C 0.34375,1.21875 0.34375,1.265625 0.34375,1.265625 c 0,0.15625 0.125,0.21875 0.234375,0.21875 0.265625,0 0.3125,-0.21875 0.34375,-0.34375 0.015625,-0.03125 0.15625,-0.59375 0.3125,-1.265625 0.21875,0.140625 0.5,0.1875 0.75,0.1875 0.59375,0 0.984375,-0.484375 1,-0.5 0.140625,0.484375 0.625,0.5 0.71875,0.5 0.25,0 0.421875,-0.140625 0.5625,-0.359375 C 4.40625,-0.578125 4.5,-0.96875 4.5,-1 c 0,-0.09375 -0.09375,-0.09375 -0.109375,-0.09375 -0.09375,0 -0.109375,0.03125 -0.15625,0.21875 -0.078125,0.34375 -0.21875,0.75 -0.5,0.75 C 3.546875,-0.125 3.5,-0.28125 3.5,-0.46875 c 0,-0.109375 0.046875,-0.375 0.109375,-0.546875 0.046875,-0.1875 0.109375,-0.46875 0.140625,-0.625 l 0.171875,-0.625 C 3.953125,-2.4375 4.03125,-2.75 4.03125,-2.78125 4.03125,-2.921875 3.921875,-3 3.8125,-3 3.734375,-3 3.59375,-2.96875 3.515625,-2.84375 3.5,-2.796875 3.4375,-2.578125 3.40625,-2.4375 l -0.140625,0.578125 -0.21875,0.875 C 3,-0.8125 3,-0.796875 2.9375,-0.703125 2.71875,-0.390625 2.40625,-0.125 2.015625,-0.125 1.4375,-0.125 1.4375,-0.625 1.4375,-0.75 c 0,-0.171875 0.03125,-0.265625 0.125,-0.640625 0.0625,-0.3125 0.078125,-0.359375 0.15625,-0.625 L 1.8125,-2.40625 c 0.03125,-0.15625 0.109375,-0.421875 0.109375,-0.4375 0,-0.125 -0.109375,-0.234375 -0.25,-0.234375 -0.25,0 -0.3125,0.25 -0.328125,0.328125 z m 0,0"
             id="id-601bd68d-c6e4-4b17-a3a1-52f65d3c3f50" /></g><g
           id="id-22b98ad2-1f53-4a36-95b0-166b7f4a8b4a"><path
             d="m 1.75,-2.875 c 0,-0.03125 0.015625,-0.0625 0.015625,-0.09375 0,-0.015625 0,-0.109375 -0.109375,-0.109375 -0.015625,0 -0.40625,0.046875 -0.453125,0.046875 C 1.0625,-3.03125 0.9375,-3.015625 0.8125,-3 c -0.109375,0 -0.203125,0.015625 -0.203125,0.15625 0,0.09375 0.09375,0.09375 0.1875,0.09375 0.328125,0 0.328125,0.046875 0.328125,0.109375 0,0.046875 -0.03125,0.1875 -0.0625,0.265625 L 0.71875,-0.96875 C 0.546875,-0.265625 0.515625,-0.125 0.515625,-0.09375 0.515625,0 0.609375,0 0.640625,0 H 0.75 C 1.375,-0.09375 2.265625,-0.421875 3,-1.09375 c 0.953125,-0.84375 1.09375,-1.75 1.09375,-1.75 0,-0.125 -0.09375,-0.234375 -0.234375,-0.234375 -0.25,0 -0.296875,0.203125 -0.359375,0.390625 -0.28125,1 -1.21875,2.0625 -2.40625,2.40625 z m 0,0"
             id="id-5d79c6ba-8de5-490c-8ae1-81ee3fedb485" /></g></g></defs><g
       fill="#000000"
       fill-opacity="1"
       id="id-85b957a5-3224-42df-a6a2-9905c88dc783"
       transform="translate(-149.087,-127.984)"
       style="fill:#ebcb8b;fill-opacity:1"><g
         transform="translate(148.712,134.765)"
         id="g2308"
         style="fill:#ebcb8b;fill-opacity:1"><path
           d="m 3.015625,-3.234375 h 0.96875 c 0.75,0 0.828125,0.15625 0.828125,0.4375 0,0.078125 0,0.1875 -0.0625,0.5 C 4.71875,-2.25 4.71875,-2.21875 4.71875,-2.1875 c 0,0.078125 0.0625,0.109375 0.109375,0.109375 0.109375,0 0.109375,-0.03125 0.15625,-0.203125 L 5.53125,-4.453125 C 5.5625,-4.5625 5.5625,-4.578125 5.5625,-4.609375 5.5625,-4.625 5.546875,-4.71875 5.4375,-4.71875 5.34375,-4.71875 5.328125,-4.671875 5.296875,-4.5 5.078125,-3.734375 4.859375,-3.546875 4,-3.546875 H 3.09375 l 0.640625,-2.53125 C 3.828125,-6.4375 3.84375,-6.46875 4.28125,-6.46875 h 1.3125 c 1.21875,0 1.453125,0.328125 1.453125,1.09375 0,0.234375 0,0.265625 -0.03125,0.546875 C 7,-4.703125 7,-4.6875 7,-4.65625 c 0,0.046875 0.03125,0.125 0.125,0.125 0.109375,0 0.109375,-0.0625 0.125,-0.25 L 7.453125,-6.515625 C 7.484375,-6.78125 7.4375,-6.78125 7.1875,-6.78125 H 2.296875 c -0.1875,0 -0.296875,0 -0.296875,0.203125 0,0.109375 0.09375,0.109375 0.28125,0.109375 0.375,0 0.65625,0 0.65625,0.171875 0,0.046875 0,0.0625 -0.0625,0.25 L 1.5625,-0.78125 c -0.09375,0.390625 -0.109375,0.46875 -0.90625,0.46875 -0.171875,0 -0.28125,0 -0.28125,0.1875 C 0.375,0 0.5,0 0.53125,0 0.8125,0 1.5625,-0.03125 1.84375,-0.03125 2.171875,-0.03125 3,0 3.328125,0 3.421875,0 3.53125,0 3.53125,-0.1875 3.53125,-0.265625 3.484375,-0.296875 3.484375,-0.296875 3.453125,-0.3125 3.421875,-0.3125 3.203125,-0.3125 c -0.21875,0 -0.265625,0 -0.515625,-0.015625 -0.296875,-0.03125 -0.328125,-0.078125 -0.328125,-0.203125 0,-0.015625 0,-0.078125 0.046875,-0.21875 z m 0,0"
           id="id-725df69a-c46d-4fbd-8b03-5503bc76a3d5"
           style="fill:#ebcb8b;fill-opacity:1" /></g></g><g
       fill="#000000"
       fill-opacity="1"
       id="id-ee408676-82bc-4968-add6-434325943a90"
       transform="translate(-149.087,-127.984)"
       style="fill:#ebcb8b;fill-opacity:1"><g
         transform="translate(155.119,136.259)"
         id="g1799"
         style="fill:#ebcb8b;fill-opacity:1"><path
           d="M 0.375,1.125 C 0.34375,1.21875 0.34375,1.265625 0.34375,1.265625 c 0,0.15625 0.125,0.21875 0.234375,0.21875 0.265625,0 0.3125,-0.21875 0.34375,-0.34375 0.015625,-0.03125 0.15625,-0.59375 0.3125,-1.265625 0.21875,0.140625 0.5,0.1875 0.75,0.1875 0.59375,0 0.984375,-0.484375 1,-0.5 0.140625,0.484375 0.625,0.5 0.71875,0.5 0.25,0 0.421875,-0.140625 0.5625,-0.359375 C 4.40625,-0.578125 4.5,-0.96875 4.5,-1 c 0,-0.09375 -0.09375,-0.09375 -0.109375,-0.09375 -0.09375,0 -0.109375,0.03125 -0.15625,0.21875 -0.078125,0.34375 -0.21875,0.75 -0.5,0.75 C 3.546875,-0.125 3.5,-0.28125 3.5,-0.46875 c 0,-0.109375 0.046875,-0.375 0.109375,-0.546875 0.046875,-0.1875 0.109375,-0.46875 0.140625,-0.625 l 0.171875,-0.625 C 3.953125,-2.4375 4.03125,-2.75 4.03125,-2.78125 4.03125,-2.921875 3.921875,-3 3.8125,-3 3.734375,-3 3.59375,-2.96875 3.515625,-2.84375 3.5,-2.796875 3.4375,-2.578125 3.40625,-2.4375 l -0.140625,0.578125 -0.21875,0.875 C 3,-0.8125 3,-0.796875 2.9375,-0.703125 2.71875,-0.390625 2.40625,-0.125 2.015625,-0.125 1.4375,-0.125 1.4375,-0.625 1.4375,-0.75 c 0,-0.171875 0.03125,-0.265625 0.125,-0.640625 0.0625,-0.3125 0.078125,-0.359375 0.15625,-0.625 L 1.8125,-2.40625 c 0.03125,-0.15625 0.109375,-0.421875 0.109375,-0.4375 0,-0.125 -0.109375,-0.234375 -0.25,-0.234375 -0.25,0 -0.3125,0.25 -0.328125,0.328125 z m 0,0"
           id="id-b187ef5f-8afb-45ee-8b87-24fdd2395033"
           style="fill:#ebcb8b;fill-opacity:1" /></g><g
         transform="translate(159.963,136.259)"
         id="g4081"
         style="fill:#ebcb8b;fill-opacity:1"><path
           d="m 1.75,-2.875 c 0,-0.03125 0.015625,-0.0625 0.015625,-0.09375 0,-0.015625 0,-0.109375 -0.109375,-0.109375 -0.015625,0 -0.40625,0.046875 -0.453125,0.046875 C 1.0625,-3.03125 0.9375,-3.015625 0.8125,-3 c -0.109375,0 -0.203125,0.015625 -0.203125,0.15625 0,0.09375 0.09375,0.09375 0.1875,0.09375 0.328125,0 0.328125,0.046875 0.328125,0.109375 0,0.046875 -0.03125,0.1875 -0.0625,0.265625 L 0.71875,-0.96875 C 0.546875,-0.265625 0.515625,-0.125 0.515625,-0.09375 0.515625,0 0.609375,0 0.640625,0 H 0.75 C 1.375,-0.09375 2.265625,-0.421875 3,-1.09375 c 0.953125,-0.84375 1.09375,-1.75 1.09375,-1.75 0,-0.125 -0.09375,-0.234375 -0.234375,-0.234375 -0.25,0 -0.296875,0.203125 -0.359375,0.390625 -0.28125,1 -1.21875,2.0625 -2.40625,2.40625 z m 0,0"
           id="id-2199ec9b-89fd-487d-a8f8-c0a605329ff7"
           style="fill:#ebcb8b;fill-opacity:1" /></g></g></g><g
     id="g6"
     transform="matrix(1.2884581,0,0,1.2884581,-23.058674,-7.4749856)"><g
       id="text2-8"
       style="font-size:13.3333px;font-family:'ComicShannsMono Nerd Font';-inkscape-font-specification:'ComicShannsMono Nerd Font';fill:#81a1c1;fill-opacity:0.7;stroke-width:0.0110833;stroke-linejoin:round;filter:url(#filter5)"
       aria-label="Live&#10;Math"><path
         d="m 71.662163,28.600904 c 0.213332,-0.02667 0.359999,-0.09333 0.426665,-0.2 0.06667,-0.09333 0.106667,-0.213333 0.106667,-0.346666 -0.01333,-0.133333 -0.06667,-0.279999 -0.16,-0.439998 -0.106666,-0.16 -0.253333,-0.213333 -0.453332,-0.16 -0.133333,0.04 -0.359999,0.08 -0.679999,0.12 -0.319999,0.05333 -0.693331,0.09333 -1.09333,0.133333 -0.399999,0.04 -0.826665,0.06667 -1.266664,0.09333 -0.453332,0.02667 -0.866664,0.02667 -1.239996,0.02667 0,-0.506665 0.01333,-0.986664 0.06667,-1.466663 0.05333,-0.479998 0.08,-1.01333 0.106666,-1.599996 0.02667,-0.893331 0.05333,-1.719995 0.08,-2.46666 0.02667,-0.746665 0.05333,-1.319997 0.05333,-1.733329 0,-0.239999 -0.06667,-0.399999 -0.199999,-0.506665 -0.133333,-0.09333 -0.279999,-0.133333 -0.439999,-0.12 -0.16,0 -0.293333,0.05333 -0.413332,0.16 -0.133333,0.106666 -0.2,0.279999 -0.2,0.519998 0,0.133333 0,0.359999 0,0.653332 0,0.293332 0.01333,0.613332 0.01333,0.959997 0,0.346666 0.01333,0.706665 0.01333,1.079998 0,0.373332 -0.01333,0.693331 -0.01333,0.986664 -0.05333,1.026664 -0.12,1.853329 -0.2,2.479994 -0.08,0.613331 -0.12,1.119997 -0.146666,1.506663 -0.02667,0.213332 0.02667,0.373332 0.146666,0.479998 0.106666,0.106667 0.239999,0.16 0.399999,0.16 0.08,0 0.333333,-0.01333 0.759998,-0.01333 0.413332,-0.01333 0.879998,-0.02667 1.41333,-0.05333 0.533332,-0.02667 1.066664,-0.05333 1.599996,-0.09333 0.533332,-0.04 0.973331,-0.09333 1.319997,-0.159999 z m 2.533316,-0.746665 c -0.226666,0 -0.373332,0.05333 -0.439999,0.16 -0.06667,0.106666 -0.09333,0.226666 -0.09333,0.359999 -0.01333,0.133333 0.01333,0.266666 0.08,0.386665 0.06667,0.12 0.213333,0.173333 0.439999,0.173333 0.253332,0 0.613332,0 1.09333,-0.01333 0.466666,0 0.946665,-0.01333 1.426663,-0.01333 0.479999,0 0.933331,-0.01333 1.33333,-0.02667 0.413333,0 0.693332,-0.01333 0.839998,-0.01333 0.2,0 0.333333,-0.05333 0.399999,-0.16 0.08,-0.106666 0.12,-0.226666 0.12,-0.346666 0,-0.133333 -0.02667,-0.239999 -0.09333,-0.346665 -0.05333,-0.106667 -0.2,-0.146667 -0.413332,-0.146667 H 77.32881 c -0.02667,-0.813331 -0.05333,-1.559996 -0.06667,-2.253327 -0.01333,-0.693332 0.01333,-1.45333 0.06667,-2.279995 0,-0.04 0,-0.09333 -0.01333,-0.173333 -0.01333,-0.08 -0.04,-0.173332 -0.09333,-0.253332 -0.05333,-0.08 -0.12,-0.16 -0.199999,-0.213333 -0.08,-0.05333 -0.2,-0.08 -0.333333,-0.08 -0.426665,-0.01333 -0.826664,-0.01333 -1.186664,0.01333 -0.359999,0.01333 -0.666665,0.02667 -0.919997,0.04 -0.16,0 -0.293333,0.06667 -0.373333,0.173333 -0.08,0.106667 -0.106666,0.24 -0.106666,0.373333 0,0.119999 0.04,0.226666 0.12,0.319999 0.08,0.106666 0.213332,0.146666 0.373332,0.146666 0.319999,0.01333 0.613332,0.01333 0.853331,0 0.253333,-0.02667 0.493332,-0.01333 0.719998,0.01333 -0.02667,0.533332 -0.04,1.053331 -0.05333,1.57333 -0.02667,0.519998 -0.02667,1.066664 0,1.626662 0,0.186667 0.01333,0.359999 0.01333,0.519999 v 0.453332 z m 2.333328,-6.079985 c 0.293332,-0.02667 0.533331,-0.133333 0.719998,-0.319999 0.173333,-0.186666 0.266666,-0.399999 0.266666,-0.666665 0,-0.253333 -0.09333,-0.479999 -0.266666,-0.666665 -0.186667,-0.186666 -0.426666,-0.266666 -0.719998,-0.266666 -0.266666,0.01333 -0.506666,0.106667 -0.719999,0.293333 -0.213332,0.186666 -0.319999,0.399999 -0.319999,0.653331 0,0.266666 0.09333,0.493332 0.279999,0.706665 0.186667,0.213333 0.439999,0.306666 0.759999,0.266666 z m 7.853303,7.039982 c 0.346665,-0.746664 0.653331,-1.399996 0.919997,-1.946661 0.266666,-0.546666 0.493332,-1.026664 0.679999,-1.426663 0.186666,-0.399999 0.346665,-0.759998 0.479998,-1.066664 0.133333,-0.293333 0.24,-0.586665 0.333333,-0.866665 0.08,-0.293332 0.09333,-0.519998 0.02667,-0.679998 -0.08,-0.16 -0.173332,-0.279999 -0.279999,-0.346666 -0.146666,-0.05333 -0.306666,-0.05333 -0.479999,0.01333 -0.173333,0.08 -0.306666,0.266666 -0.386665,0.559999 -0.213333,0.679998 -0.479999,1.37333 -0.786665,2.079995 -0.319999,0.719998 -0.666665,1.453329 -1.066664,2.226661 -0.266666,-0.586665 -0.546665,-1.226664 -0.839998,-1.933329 -0.306666,-0.706664 -0.586665,-1.466663 -0.826664,-2.279994 -0.106667,-0.319999 -0.253333,-0.519999 -0.439999,-0.586665 -0.2,-0.06667 -0.373333,-0.06667 -0.506666,0 -0.133333,0.06667 -0.253332,0.173333 -0.333332,0.333332 -0.09333,0.16 -0.08,0.386666 0.02667,0.679999 0.266666,0.719998 0.599999,1.506663 0.973331,2.34666 0.373333,0.839998 0.866665,1.799996 1.45333,2.879993 0.04,0.08 0.106666,0.146666 0.213333,0.186666 0.106666,0.04 0.213333,0.06667 0.319999,0.06667 0.106666,0 0.213333,-0.01333 0.306666,-0.05333 0.106666,-0.02667 0.173333,-0.09333 0.213333,-0.186667 z m 6.919971,-5.613319 c 0.253332,0 0.479999,0.08 0.693331,0.213333 0.213333,0.146666 0.426666,0.413332 0.613332,0.799998 -0.159999,0.16 -0.399999,0.293333 -0.706665,0.426666 -0.293332,0.133333 -0.599998,0.253332 -0.919997,0.359999 -0.306666,0.106666 -0.599999,0.199999 -0.866665,0.266666 -0.266666,0.06667 -0.439999,0.106666 -0.533332,0.133333 0.02667,-0.386666 0.106667,-0.719998 0.213333,-0.999998 0.12,-0.279999 0.266666,-0.506665 0.426665,-0.693331 0.173333,-0.173333 0.36,-0.306666 0.546666,-0.386666 0.186666,-0.08 0.373332,-0.12 0.533332,-0.12 z m 2.533327,4.773322 c 0.186666,-0.24 0.253332,-0.439999 0.199999,-0.599999 -0.05333,-0.159999 -0.146666,-0.279999 -0.266666,-0.373332 -0.133333,-0.08 -0.266666,-0.12 -0.426665,-0.09333 -0.16,0.02667 -0.346666,0.159999 -0.533332,0.413332 -0.02667,0.02667 -0.08,0.09333 -0.173333,0.173333 -0.106667,0.08 -0.226666,0.173333 -0.373333,0.253333 -0.159999,0.08 -0.333332,0.159999 -0.546665,0.226666 -0.213333,0.06667 -0.426666,0.09333 -0.666665,0.08 -0.466665,-0.01333 -0.799998,-0.159999 -1.013331,-0.426665 -0.213332,-0.266666 -0.346665,-0.599999 -0.399999,-0.986664 0.213333,-0.08 0.479999,-0.173333 0.799998,-0.28 0.319999,-0.106666 0.639999,-0.226666 0.986664,-0.359999 0.333333,-0.133333 0.666665,-0.266666 0.986665,-0.413332 0.319999,-0.146666 0.573332,-0.293333 0.786664,-0.453332 0.05333,-0.04 0.133333,-0.106667 0.226666,-0.2 0.08,-0.09333 0.16,-0.199999 0.24,-0.306666 0.06667,-0.106666 0.119999,-0.226666 0.159999,-0.359999 0.04,-0.119999 0.05333,-0.239999 0.02667,-0.359999 -0.08,-0.239999 -0.213333,-0.453332 -0.386666,-0.666665 -0.186666,-0.213333 -0.373332,-0.386665 -0.586665,-0.533332 -0.213333,-0.146666 -0.439999,-0.266666 -0.666665,-0.346666 -0.239999,-0.08 -0.439999,-0.133333 -0.626665,-0.133333 -0.453332,0 -0.866664,0.08 -1.25333,0.24 -0.399999,0.159999 -0.733332,0.386666 -1.013331,0.679998 -0.279999,0.293333 -0.506665,0.666665 -0.666665,1.106664 -0.173333,0.453332 -0.266666,0.946664 -0.266666,1.506663 -0.01333,1.013331 0.213333,1.826662 0.666665,2.413327 0.453332,0.586665 1.106664,0.893331 1.933329,0.893331 0.853331,0.01333 1.493329,-0.08 1.893328,-0.293332 0.399999,-0.213333 0.719998,-0.479999 0.959998,-0.799998 z"
         id="path4"
         style="fill:#81a1c1;fill-opacity:0.7" /><path
         d="m 69.782167,40.50754 c 0.02667,-0.08 0.08,-0.266666 0.133333,-0.533332 0.05333,-0.266666 0.106667,-0.586665 0.16,-0.973331 0.05333,-0.386666 0.12,-0.813331 0.173333,-1.29333 0.05333,-0.479999 0.106666,-0.959998 0.133333,-1.466663 0.05333,-0.639998 0.119999,-1.25333 0.213333,-1.839995 0.106666,-0.586665 0.186666,-1.066664 0.253332,-1.426663 0.02667,0.626665 0.05333,1.319996 0.08,2.093328 0.02667,0.773331 0.06667,1.506663 0.106666,2.213327 0.04,0.706665 0.08,1.33333 0.133333,1.879996 0.05333,0.546665 0.09333,0.906664 0.146667,1.09333 0.09333,0.266666 0.213333,0.439999 0.373332,0.519999 0.16,0.06667 0.306666,0.06667 0.439999,0 0.133333,-0.05333 0.226666,-0.16 0.279999,-0.319999 0.05333,-0.16 0.05333,-0.359999 -0.01333,-0.626665 -0.04,-0.186667 -0.09333,-0.639999 -0.146666,-1.346664 -0.05333,-0.693331 -0.12,-1.453329 -0.173333,-2.266661 -0.05333,-0.799998 -0.106667,-1.573329 -0.16,-2.293327 -0.05333,-0.719998 -0.106666,-1.21333 -0.133333,-1.45333 -0.04,-0.266666 -0.159999,-0.426665 -0.359999,-0.466665 -0.186666,-0.02667 -0.346666,-0.05333 -0.466665,-0.05333 -0.133333,0 -0.306666,0.02667 -0.493332,0.08 -0.186667,0.05333 -0.32,0.186667 -0.373333,0.373333 -0.02667,0.133333 -0.08,0.333332 -0.133333,0.586665 -0.05333,0.253333 -0.106666,0.546665 -0.173333,0.866664 -0.05333,0.333333 -0.119999,0.693332 -0.173333,1.066664 -0.05333,0.386666 -0.106666,0.773332 -0.159999,1.159997 -0.05333,0.639999 -0.106667,1.239997 -0.16,1.799996 -0.05333,0.559999 -0.09333,1.026664 -0.119999,1.37333 -0.05333,-0.426666 -0.12,-0.973331 -0.2,-1.626663 -0.08,-0.653331 -0.16,-1.319996 -0.239999,-1.986661 -0.08,-0.666665 -0.16,-1.29333 -0.253333,-1.879996 -0.08,-0.586665 -0.173333,-1.039997 -0.253333,-1.359996 -0.05333,-0.186666 -0.146666,-0.319999 -0.293332,-0.373333 -0.133333,-0.05333 -0.266666,-0.08 -0.386666,-0.08 -0.133333,0 -0.293333,0.02667 -0.479999,0.09333 -0.186666,0.08 -0.319999,0.199999 -0.413332,0.386665 -0.05333,0.133333 -0.12,0.373333 -0.173333,0.746665 -0.05333,0.373333 -0.106666,0.786665 -0.16,1.266664 -0.05333,0.479998 -0.09333,0.999997 -0.146666,1.533329 -0.04,0.533332 -0.08,1.026664 -0.12,1.466663 -0.04,0.559999 -0.09333,1.066664 -0.146666,1.533329 -0.05333,0.466666 -0.08,0.786665 -0.08,0.946665 0,0.253332 0.04,0.466665 0.09333,0.639998 0.06667,0.186666 0.186667,0.279999 0.359999,0.279999 0.16,0.01333 0.293333,-0.05333 0.413333,-0.213332 0.133333,-0.146667 0.186666,-0.359999 0.173333,-0.639999 0,-0.159999 0.01333,-0.453332 0.06667,-0.866664 0.05333,-0.399999 0.09333,-0.919998 0.12,-1.559996 0.05333,-0.773332 0.106666,-1.49333 0.146666,-2.133328 0.04,-0.639999 0.09333,-1.25333 0.146666,-1.813329 0.08,0.586665 0.186667,1.226664 0.293333,1.933328 0.106666,0.719999 0.213333,1.399997 0.319999,2.053329 0.106667,0.653331 0.2,1.239997 0.293333,1.773328 0.09333,0.533332 0.159999,0.893332 0.213333,1.106664 0.02667,0.106667 0.09333,0.2 0.199999,0.253333 0.106667,0.06667 0.253333,0.09333 0.413332,0.08 0.146667,0 0.28,-0.01333 0.413333,-0.06667 0.133333,-0.04 0.239999,-0.119999 0.293332,-0.239999 z m 5.13331,-2.426661 c 0,-0.519998 0.08,-0.959997 0.213333,-1.306663 0.146666,-0.346666 0.319999,-0.613332 0.519999,-0.826665 0.199999,-0.213332 0.413332,-0.359999 0.639998,-0.453332 0.24,-0.08 0.439999,-0.133333 0.599999,-0.133333 0.279999,0 0.493332,0.04 0.653331,0.106667 0.16,0.06667 0.319999,0.173333 0.493332,0.306666 -0.05333,0.506665 -0.09333,0.959997 -0.106666,1.359996 -0.02667,0.399999 -0.02667,0.746665 -0.02667,1.053331 -0.08,0.199999 -0.173333,0.413332 -0.293332,0.626665 -0.12,0.213333 -0.253333,0.413332 -0.413333,0.586665 -0.159999,0.173333 -0.333332,0.319999 -0.519998,0.426666 -0.186666,0.119999 -0.386666,0.173333 -0.599999,0.173333 -0.199999,0 -0.373332,-0.05333 -0.519998,-0.186667 -0.146667,-0.133333 -0.266666,-0.293332 -0.359999,-0.479998 -0.09333,-0.186667 -0.16,-0.386666 -0.2,-0.613332 -0.05333,-0.226666 -0.08,-0.439999 -0.08,-0.639999 z M 79.2888,35.280887 c -0.32,-0.346666 -0.639999,-0.613332 -0.959998,-0.786665 -0.319999,-0.16 -0.693332,-0.253333 -1.146664,-0.253333 -0.453332,0 -0.906664,0.06667 -1.33333,0.2 -0.426665,0.133333 -0.813331,0.373332 -1.13333,0.693331 -0.319999,0.319999 -0.586665,0.759998 -0.786665,1.306664 -0.199999,0.546665 -0.293333,1.226663 -0.293333,2.039994 0,0.293333 0.05333,0.586666 0.16,0.893331 0.106666,0.306666 0.266666,0.586666 0.479999,0.839998 0.199999,0.253333 0.453332,0.466666 0.746665,0.626665 0.293332,0.173333 0.626665,0.266666 0.986664,0.266666 0.479999,0 0.893331,-0.133333 1.21333,-0.399999 0.333333,-0.266666 0.599999,-0.573331 0.799998,-0.919997 0.02667,0.146666 0.04,0.279999 0.06667,0.413332 0.02667,0.133333 0.05333,0.266666 0.06667,0.399999 0.08,0.279999 0.186666,0.453332 0.319999,0.519999 0.146667,0.08 0.293333,0.106666 0.439999,0.09333 0.16,0 0.306666,-0.06667 0.426666,-0.173333 0.119999,-0.106666 0.146666,-0.293333 0.08,-0.573332 -0.106667,-0.493332 -0.186667,-0.933331 -0.24,-1.33333 -0.05333,-0.399999 -0.09333,-0.786665 -0.106666,-1.17333 0,-0.386666 0.01333,-0.799998 0.04,-1.226664 0.04,-0.426665 0.09333,-0.906664 0.173333,-1.453329 z m 6.599972,5.546652 c 0.16,-0.05333 0.293333,-0.146666 0.413333,-0.279999 0.119999,-0.133333 0.159999,-0.279999 0.133333,-0.453332 -0.04,-0.16 -0.106667,-0.266666 -0.213333,-0.346666 -0.106666,-0.06667 -0.213333,-0.08 -0.346666,-0.02667 -0.253333,0.12 -0.506665,0.2 -0.759998,0.24 -0.253333,0.04 -0.493332,0.05333 -0.719998,0.04 -0.399999,0 -0.706665,-0.133333 -0.933331,-0.373333 -0.213333,-0.239999 -0.333333,-0.533332 -0.359999,-0.893331 0,-0.12 0,-0.293332 0,-0.506665 0,-0.213333 0.01333,-0.453332 0.01333,-0.719998 0.01333,-0.266666 0.02667,-0.559999 0.04,-0.879998 0.02667,-0.306666 0.04,-0.613332 0.04,-0.933331 0.546665,0.01333 1.053331,0.02667 1.506663,0.02667 0.453332,0 0.786664,0 0.973331,0 0.213332,0 0.359999,-0.04 0.426665,-0.146666 0.06667,-0.09333 0.106667,-0.199999 0.106667,-0.319999 0,-0.133333 -0.02667,-0.253333 -0.09333,-0.373332 -0.06667,-0.106667 -0.213333,-0.173333 -0.439999,-0.173333 -0.16,0 -0.479999,0 -0.959998,-0.02667 -0.466665,-0.01333 -0.959997,-0.02667 -1.479996,-0.04 0.01333,-0.426665 0.02667,-0.813331 0.02667,-1.159997 0,-0.346666 0,-0.613332 -0.02667,-0.813331 -0.01333,-0.106667 -0.106667,-0.226666 -0.293333,-0.333333 -0.173333,-0.106666 -0.333332,-0.159999 -0.479999,-0.159999 -0.146666,0 -0.253332,0.06667 -0.333332,0.199999 -0.08,0.133333 -0.106666,0.253333 -0.106666,0.373333 0.04,0.346665 0.06667,0.679998 0.06667,0.986664 0,0.306666 0,0.599998 -0.01333,0.893331 -0.12,-0.01333 -0.24,-0.01333 -0.346666,-0.01333 h -0.306666 c -0.213333,0 -0.359999,0.05333 -0.426666,0.159999 -0.06667,0.106667 -0.106666,0.24 -0.106666,0.373333 0,0.133333 0.02667,0.253332 0.09333,0.373332 0.06667,0.106666 0.213333,0.173333 0.426666,0.173333 h 0.613332 c -0.02667,0.453332 -0.06667,0.919997 -0.09333,1.426663 -0.02667,0.506665 -0.04,1.079997 -0.02667,1.719996 0.02667,0.719998 0.253333,1.266663 0.706665,1.639995 0.453332,0.373333 0.986664,0.573332 1.599996,0.586666 0.266666,0.01333 0.546665,0 0.839998,-0.04 0.293332,-0.02667 0.573331,-0.09333 0.839997,-0.2 z m 3.906646,-2.933326 c 0,-0.05333 0.01333,-0.199999 0.05333,-0.453332 0.05333,-0.239999 0.146666,-0.506665 0.293333,-0.786665 0.146666,-0.266666 0.359999,-0.519998 0.626665,-0.746664 0.279999,-0.213333 0.639998,-0.333333 1.09333,-0.346666 0.253333,0 0.439999,0.159999 0.573332,0.466665 0.133333,0.306666 0.2,0.733332 0.213333,1.29333 0,0.559999 0,1.093331 -0.01333,1.586663 -0.02667,0.493332 -0.02667,0.959998 -0.02667,1.41333 0,0.213333 0.06667,0.373332 0.213333,0.493332 0.133333,0.12 0.279999,0.186666 0.426666,0.186666 0.159999,0.01333 0.306665,-0.04 0.439998,-0.173333 0.133333,-0.133333 0.213333,-0.333332 0.213333,-0.613332 0,-0.479998 -0.02667,-1.01333 -0.06667,-1.586662 -0.05333,-0.559999 -0.06667,-1.186664 -0.05333,-1.866662 0,-0.306666 -0.02667,-0.599999 -0.08,-0.893331 -0.05333,-0.293333 -0.133333,-0.546666 -0.24,-0.759998 -0.119999,-0.213333 -0.279999,-0.386666 -0.466665,-0.519999 -0.186666,-0.133333 -0.426666,-0.2 -0.706665,-0.2 -0.693332,0 -1.239997,0.146667 -1.626663,0.413333 -0.399999,0.266666 -0.679998,0.559998 -0.839997,0.853331 0,-0.306666 -0.01333,-0.666665 -0.01333,-1.079997 0,-0.399999 -0.01333,-0.799998 -0.01333,-1.186664 0,-0.386666 0,-0.733332 0,-1.026664 v -0.573332 c 0,-0.239999 -0.06667,-0.399999 -0.2,-0.506665 -0.133333,-0.09333 -0.279999,-0.133333 -0.439998,-0.133333 -0.16,0 -0.293333,0.05333 -0.413333,0.159999 -0.133333,0.106667 -0.199999,0.28 -0.199999,0.519999 -0.01333,0.293332 -0.02667,0.653332 -0.02667,1.053331 0,0.413332 0,0.839997 0,1.29333 0,0.453332 0,0.893331 0.01333,1.346663 0,0.453332 0.01333,0.879998 0.04,1.25333 0,0.186666 0,0.466666 -0.01333,0.826665 -0.01333,0.359999 -0.02667,0.733331 -0.04,1.106664 -0.01333,0.373332 -0.02667,0.719998 -0.04,1.039997 -0.02667,0.319999 -0.04,0.519999 -0.04,0.599998 -0.02667,0.213333 0.02667,0.373333 0.146667,0.479999 0.106666,0.106667 0.239999,0.16 0.399999,0.16 0.159999,0.01333 0.319999,-0.02667 0.479998,-0.133333 0.146667,-0.106667 0.226667,-0.253333 0.253333,-0.439999 0.02667,-0.293333 0.05333,-0.599999 0.05333,-0.919998 0,-0.306666 0,-0.679998 0.01333,-1.119997 0,-0.08 0,-0.173333 0,-0.253333 0,-0.08 0,-0.159999 0.01333,-0.226666 z m 0,0 c 0,0 -0.01333,0 -0.01333,0.01333 0,-0.01333 0.01333,-0.01333 0.01333,-0.01333 z"
         id="path5"
         style="fill:#81a1c1;fill-opacity:0.7" /></g><text
       xml:space="preserve"
       style="font-style:normal;font-variant:normal;font-weight:normal;font-stretch:normal;font-size:13.3333px;line-height:0.9;font-family:'ComicShannsMono Nerd Font';-inkscape-font-specification:'ComicShannsMono Nerd Font';fill:#81a1c1;fill-opacity:1;stroke-width:0.0110833;stroke-linejoin:round"
       x="65.448845"
       y="28.720903"
       id="text2"><tspan
         sodipodi:role="line"
         id="tspan2"
         style="font-size:13.3333px;fill:#81a1c1;fill-opacity:1;stroke-width:0.0110833"
         x="65.448845"
         y="28.720903">Live</tspan><tspan
         sodipodi:role="line"
         style="font-size:13.3333px;fill:#81a1c1;fill-opacity:1;stroke-width:0.0110833"
         x="65.448845"
         y="40.720871"
         id="tspan3">Math</tspan></text></g><g
     id="g5"
     transform="translate(0.22981205,-2.3333336)"><text
       xml:space="preserve"
       style="font-style:normal;font-variant:normal;font-weight:normal;font-stretch:normal;font-size:8.88889px;font-family:'ComicShannsMono Nerd Font';-inkscape-font-specification:'ComicShannsMono Nerd Font';fill:#85c8c8;fill-opacity:1;stroke-width:0.0110833;stroke-linejoin:round"
       x="71.018967"
       y="14.447485"
       id="text4"><tspan
         sodipodi:role="line"
         id="tspan4"
         style="font-size:8.88889px;fill:#85c8c8;fill-opacity:1;stroke-width:0.0110833"
         x="71.018967"
         y="14.447485">Logseq</tspan></text><g
       style="fill:none"
       id="g4"
       transform="matrix(0.17538604,0,0,0.17538604,60.273989,8.719439)"><rect
         style="fill:#0e2a35;fill-opacity:1;stroke-width:0.155956;stroke-linejoin:round"
         id="rect1-5"
         width="57.457603"
         height="53.939793"
         x="-4.2288022"
         y="-3.9698958"
         ry="11.143078"
         rx="11.143078" /><ellipse
         rx="7.0236902"
         ry="4.4279299"
         transform="matrix(0.988865,-0.148815,0.0688008,0.99763,27.0473,6.96687)"
         fill="#85c8c8"
         id="ellipse1"
         cx="0"
         cy="0" /><ellipse
         rx="6.3002901"
         ry="7.20225"
         transform="matrix(-0.495846,0.86841,-0.825718,-0.564084,9.07103,10.4006)"
         fill="#85c8c8"
         id="ellipse2"
         cx="0"
         cy="0" /><ellipse
         rx="16.608999"
         ry="13.0775"
         transform="matrix(0.987073,0.160274,-0.239143,0.970984,28.5105,29.9736)"
         fill="#85c8c8"
         id="ellipse3"
         cx="0"
         cy="0" /></g></g></svg>
