<?xml version="1.0" encoding="UTF-8" standalone="no"?>
<!-- Created with Inkscape (http://www.inkscape.org/) -->

<svg
   width="50mm"
   height="50mm"
   viewBox="0 0 50 50"
   version="1.1"
   id="svg1"
   inkscape:version="1.3.2 (091e20ef0f, 2023-11-25, custom)"
   sodipodi:docname="icon.svg"
   xmlns:inkscape="http://www.inkscape.org/namespaces/inkscape"
   xmlns:sodipodi="http://sodipodi.sourceforge.net/DTD/sodipodi-0.dtd"
   xmlns:xlink="http://www.w3.org/1999/xlink"
   xmlns="http://www.w3.org/2000/svg"
   xmlns:svg="http://www.w3.org/2000/svg"
   xmlns:ns5="http://www.iki.fi/pav/software/textext/">
  <sodipodi:namedview
     id="namedview1"
     pagecolor="#ffffff"
     bordercolor="#000000"
     borderopacity="0.25"
     inkscape:showpageshadow="2"
     inkscape:pageopacity="0.0"
     inkscape:pagecheckerboard="0"
     inkscape:deskcolor="#d1d1d1"
     inkscape:document-units="mm"
     inkscape:zoom="2.708193"
     inkscape:cx="110.59035"
     inkscape:cy="87.142977"
     inkscape:window-width="1536"
     inkscape:window-height="896"
     inkscape:window-x="0"
     inkscape:window-y="0"
     inkscape:window-maximized="1"
     inkscape:current-layer="svg1" />
  <defs
     id="defs1">
    <linearGradient
       id="linearGradient1"
       inkscape:collect="always">
      <stop
         style="stop-color:#4c566a;stop-opacity:1;"
         offset="0"
         id="stop1" />
      <stop
         style="stop-color:#2e3440;stop-opacity:1;"
         offset="1"
         id="stop2" />
    </linearGradient>
    <linearGradient
       inkscape:collect="always"
       xlink:href="#linearGradient1"
       id="linearGradient2"
       x1="7.8157897"
       y1="4.2986841"
       x2="43.768421"
       y2="41.91217"
       gradientUnits="userSpaceOnUse" />
  </defs>
  <rect
     style="opacity:1;fill:url(#linearGradient2);fill-opacity:1;stroke:none;stroke-width:0.0351896;stroke-linejoin:round"
     id="rect1"
     width="50"
     height="50"
     x="0"
     y="0"
     ry="10" />
  <g
     inkscape:label="Layer 1"
     inkscape:groupmode="layer"
     id="layer1" />
  <path
     style="font-size:6.35px;font-family:'ComicShannsMono Nerd Font';-inkscape-font-specification:'ComicShannsMono Nerd Font';fill:#e5e9f0;stroke-width:0.0351896;stroke-linejoin:round"
     d="m 6.6901989,9.8903773 c 0,0.1587497 -0.0635,0.2984497 -0.19685,0.4127497 -0.13335,0.12065 -0.28575,0.20955 -0.46355,0.2667 0.00635,-0.20955 0.00635,-0.43815 0.00635,-0.6857997 0,-0.24765 0.00635,-0.4953 0.00635,-0.7493 0.27305,0.09525 0.45085,0.20955 0.5334,0.3429 0.0762,0.1397 0.1143,0.27305 0.1143,0.41275 z m -1.69545,-1.7907 c 0,-0.1524 0.0635,-0.28575 0.1778,-0.3937 0.1143,-0.10795 0.26035,-0.18415 0.43815,-0.2286 v 0.4953 c 0,0.1778 0,0.36195 -0.00635,0.5461 -0.1905,-0.0254 -0.33655,-0.08255 -0.4445,-0.15875 -0.10795,-0.0762 -0.1651,-0.15875 -0.1651,-0.26035 z m -0.5969,2.4637997 c 0.0762,0.14605 0.2032,0.28575 0.3937,0.41275 0.18415,0.127 0.42545,0.1905 0.71755,0.1905 h 0.08255 c -0.00635,0.0889 -0.0127,0.17145 -0.0127,0.23495 0,0.0635 -0.00635,0.1143 -0.00635,0.14605 -0.0127,0.1016 0,0.1778 0.03175,0.2286 0.0254,0.0508 0.06985,0.0762 0.127,0.0762 0.0762,0.0063 0.14605,-0.0127 0.20955,-0.0635 0.05715,-0.0508 0.0889,-0.12065 0.1016,-0.20955 -0.00635,-0.0508 -0.00635,-0.12065 -0.00635,-0.2032 v -0.2667 c 0.1651,-0.0381 0.32385,-0.1016 0.47625,-0.1778 0.14605,-0.0762 0.27305,-0.17145 0.381,-0.28575 0.10795,-0.1143 0.19685,-0.2413 0.26035,-0.38735 0.0635,-0.1397 0.09525,-0.2984497 0.09525,-0.4698997 0,-0.127 -0.01905,-0.254 -0.05715,-0.38735 -0.0381,-0.127 -0.09525,-0.254 -0.18415,-0.3683 -0.0889,-0.1143 -0.2159,-0.20955 -0.3683,-0.29845 -0.1524,-0.08255 -0.34925,-0.1397 -0.5842,-0.17145 0,-0.2032 0.00635,-0.4064 0.00635,-0.5969 0,-0.1905 0.00635,-0.3683 0.0127,-0.5334 0.1651,0.00635 0.2794,0.03175 0.3429,0.06985 0.0635,0.0381 0.1397,0.06985 0.22225,0.08255 0.05715,0.01905 0.127,0.0254 0.20955,0.01905 0.08255,-0.00635 0.13335,-0.05715 0.14605,-0.15875 0.00635,-0.0635 -0.00635,-0.12065 -0.03175,-0.18415 -0.03175,-0.0635 -0.0889,-0.10795 -0.1651,-0.1397 -0.0381,-0.0127 -0.08255,-0.0254 -0.14605,-0.04445 -0.0635,-0.0127 -0.127,-0.03175 -0.19685,-0.04445 -0.06985,-0.0127 -0.1397,-0.03175 -0.2032,-0.04445 -0.06985,-0.0127 -0.127,-0.01905 -0.17145,-0.0254 v -0.3175 c 0,-0.1143 -0.0254,-0.1905 -0.0762,-0.2413 -0.0508,-0.04445 -0.1143,-0.0635 -0.19685,-0.0635 -0.0508,0 -0.09525,0.0254 -0.13335,0.0762 -0.03175,0.0508 -0.0508,0.13335 -0.05715,0.24765 v 0.14605 c 0,0.05715 0,0.12065 -0.00635,0.18415 -0.2032,0.0381 -0.37465,0.09525 -0.52705,0.1778 -0.14605,0.08255 -0.2667,0.1778 -0.36195,0.28575 -0.0889,0.1143 -0.15875,0.23495 -0.20955,0.3683 -0.04445,0.1397 -0.06985,0.2794 -0.06985,0.4191 0,0.15875 0.0762,0.3175 0.2286,0.4699 0.1524,0.15875 0.37465,0.254 0.66675,0.2794 0.0508,0.00635 0.09525,0.0127 0.1397,0.01905 0.04445,0.0127 0.0889,0.01905 0.127,0.01905 0,0.2921 0,0.57785 0,0.8636 0,0.2857497 -0.00635,0.5397497 -0.0127,0.7683497 h -0.0635 c -0.1651,0 -0.29845,-0.0381 -0.40005,-0.12065 -0.1016,-0.0762 -0.18415,-0.17145 -0.254,-0.27305 -0.06985,-0.1016 -0.13335,-0.15875 -0.19685,-0.1651 -0.05715,0 -0.127,0.0127 -0.20955,0.04445 -0.0635,0.03175 -0.1016,0.08255 -0.127,0.1524 -0.01905,0.06985 0,0.15875 0.05715,0.26035 z m 3.9750951,0.41275 c -0.00635,-0.0889 -0.0127,-0.2032 -0.01905,-0.33655 0,-0.127 -0.00635,-0.2667 -0.0127,-0.4191 0,-0.1524 -0.00635,-0.3111497 -0.0127,-0.4762497 0,-0.1651 -0.00635,-0.33655 -0.0127,-0.50165 0.14605,-0.0127 0.31115,-0.0254 0.4953,-0.03175 0.18415,0 0.3683,0 0.5461,0.00635 0.1777999,0.00635 0.3492499,0.0127 0.5016499,0.0254 0.1587501,0.0127 0.2794001,0.0254 0.3556001,0.0381 0.10795,0.0127 0.1778,-0.0127 0.20955,-0.0762 0.03175,-0.05715 0.04445,-0.12065 0.04445,-0.18415 0,-0.0508 -0.01905,-0.1016 -0.0508,-0.1397 -0.03175,-0.0381 -0.1016,-0.0635 -0.2032,-0.08255 -0.0762,-0.0127 -0.1905,-0.0254 -0.3429001,-0.04445 -0.1524,-0.0127 -0.3175,-0.0254 -0.4952999,-0.0381 -0.1778,-0.00635 -0.3556,-0.00635 -0.5461,-0.00635 -0.1905,0 -0.36195,0.0127 -0.5207,0.0254 0,-0.2667 0,-0.4953 0.00635,-0.6985 0.0127,-0.2032 0.01905,-0.381 0.01905,-0.5461 0.3175,-0.0254 0.6604,-0.0381 1.016,-0.0508 0.3619499,-0.0127 0.7112,-0.00635 1.0541,0.00635 0.10795,0.00635 0.18415,-0.01905 0.22225,-0.08255 0.0381,-0.05715 0.05715,-0.12065 0.05715,-0.18415 0,-0.0508 -0.01905,-0.1016 -0.0508,-0.14605 -0.03175,-0.0381 -0.1016,-0.0635 -0.2032,-0.0762 -0.12065,-0.0127 -0.2667,-0.01905 -0.4318001,-0.0254 -0.1651,0 -0.3429,0 -0.5334,0 -0.1904999,0.00635 -0.3873499,0.0127 -0.5905499,0.01905 -0.2032,0.0127 -0.40005,0.01905 -0.59055,0.03175 -0.0254,-0.0381 -0.0635,-0.0635 -0.10795,-0.08255 -0.04445,-0.0127 -0.0889,-0.01905 -0.1397,-0.01905 -0.06985,0 -0.13335,0.0254 -0.19685,0.0762 -0.05715,0.0508 -0.0889,0.13335 -0.09525,0.24765 0,0.08255 0,0.15875 -0.00635,0.23495 0,0.0762 -0.00635,0.1651 -0.0127,0.254 0,0.0889 0,0.19685 0,0.31115 0,0.1143 0.00635,0.254 0.00635,0.4191 0.0127,0.26035 0.01905,0.5207 0.0254,0.7874 0.00635,0.2667 0.0127,0.508 0.0127,0.7366 0,0.2285997 0,0.4317997 0,0.6095997 0,0.1778 -0.00635,0.3048 -0.0127,0.38735 -0.00635,0.1016 0.01905,0.1778 0.06985,0.2286 0.05715,0.0508 0.12065,0.0762 0.1905,0.0762 0.08255,0.0064 0.15875,-0.0127 0.2286,-0.0635 0.0762,-0.0508 0.1143,-0.12065 0.127,-0.20955 z m 3.130545,0.23495 c -0.10795,0 -0.1778,0.0254 -0.20955,0.0762 -0.03175,0.05715 -0.04445,0.1143 -0.0381,0.17145 0,0.0635 0.0127,0.127 0.04445,0.1778 0.03175,0.0508 0.1016,0.0762 0.20955,0.0762 0.17145,0 0.381,0 0.6223,0 0.2413,0 0.4826,-0.0064 0.7239,-0.0064 0.2413,0 0.4572,0 0.6604,0 0.2032,0 0.34925,-0.0063 0.43815,-0.0063 0.1016,0 0.17145,-0.0254 0.2032,-0.08255 0.03175,-0.0508 0.0508,-0.1143 0.0508,-0.1778 -0.0063,-0.05715 -0.0254,-0.10795 -0.05715,-0.15875 -0.03175,-0.0508 -0.09525,-0.0762 -0.19685,-0.0762 -0.1016,0 -0.2413,0.0063 -0.4064,0.0063 -0.1651,0 -0.3556,0.0064 -0.5715,0.0064 -0.2159,0 -0.4445,0 -0.6985,0 -0.254,0 -0.508,0 -0.7747,-0.0064 z m 5.213346,-1.7589497 c 0,-0.0889 -0.0762,-0.18415 -0.2286,-0.2921 -0.1524,-0.1016 -0.33655,-0.1905 -0.5588,-0.26035 0.0889,-0.01905 0.1778,-0.04445 0.27305,-0.08255 0.09525,-0.0381 0.1778,-0.08255 0.254,-0.13335 0.0762,-0.0508 0.13335,-0.10795 0.18415,-0.1778 0.0508,-0.0635 0.0762,-0.1397 0.0762,-0.22225 0,-0.0381 -0.01905,-0.09525 -0.05715,-0.17145 -0.0381,-0.0762 -0.0762,-0.15875 -0.1143,-0.254 -0.04445,-0.09525 -0.08255,-0.19685 -0.12065,-0.3048 -0.0381,-0.10795 -0.05715,-0.2159 -0.05715,-0.32385 0,-0.1905 0.0762,-0.34925 0.2286,-0.4699 0.1524,-0.12065 0.36195,-0.18415 0.635,-0.18415 0.0635,0 0.127,-0.0254 0.2032,-0.0889 0.0762,-0.0635 0.10795,-0.127 0.10795,-0.19685 0,-0.0508 -0.0254,-0.1016 -0.08255,-0.14605 -0.0508,-0.04445 -0.12065,-0.06985 -0.2032,-0.06985 -0.45085,0 -0.80645,0.1143 -1.06045,0.33655 -0.254,0.22225 -0.38735,0.51435 -0.38735,0.88265 0,0.15875 0.01905,0.2921 0.0508,0.40005 0.03175,0.1143 0.06985,0.20955 0.10795,0.28575 0.0381,0.0762 0.0762,0.1397 0.10795,0.1905 0.03175,0.0508 0.04445,0.09525 0.04445,0.13335 0,0.06985 -0.0254,0.127 -0.08255,0.17145 -0.0508,0.04445 -0.12065,0.0762 -0.20955,0.09525 -0.0889,0.0254 -0.1905,0.0381 -0.3048,0.04445 -0.1143,0.0127 -0.2286,0.0127 -0.34925,0.0127 -0.0889,0 -0.1524,0.03175 -0.1905,0.08255 -0.0381,0.05715 -0.0635,0.12065 -0.0635,0.19685 0,0.08255 0.03175,0.15875 0.0889,0.22225 0.0635,0.0635 0.13335,0.09525 0.20955,0.09525 0.2921,0 0.52705,0.0381 0.69215,0.1143 0.1651,0.0762 0.24765,0.127 0.24765,0.15875 0,0.1143 -0.0127,0.22225 -0.0508,0.32385 -0.0381,0.1016 -0.0762,0.2031997 -0.12065,0.3047997 -0.04445,0.1016 -0.08255,0.20955 -0.12065,0.32385 -0.0381,0.1143 -0.05715,0.24765 -0.05715,0.3937 0,0.1524 0.04445,0.2794 0.127,0.38735 0.08255,0.10795 0.1905,0.19685 0.32385,0.2667 0.13335,0.0762 0.28575,0.127 0.4572,0.1651 0.1778,0.0381 0.3556,0.0508 0.53975,0.0508 0.10795,0 0.18415,-0.0254 0.22225,-0.0889 0.0381,-0.0635 0.05715,-0.12065 0.05715,-0.1778 0,-0.06985 -0.03175,-0.127 -0.09525,-0.17145 -0.0635,-0.0381 -0.13335,-0.0635 -0.20955,-0.0635 -0.0889,0 -0.18415,-0.0063 -0.28575,-0.0254 -0.1016,-0.0127 -0.1905,-0.0381 -0.2794,-0.0762 -0.08255,-0.03175 -0.1524,-0.0762 -0.20955,-0.127 -0.0508,-0.0508 -0.08255,-0.1143 -0.08255,-0.18415 0,-0.1397 0.01905,-0.2667 0.05715,-0.381 0.0381,-0.1143 0.0762,-0.22225 0.1143,-0.32385 0.0381,-0.1015997 0.0762,-0.2031997 0.1143,-0.3047997 0.0381,-0.1016 0.05715,-0.20955 0.05715,-0.33655 z m 3.282944,0.6159497 c 0.0508,0.09525 0.1016,0.19685 0.15875,0.31115 0.0508,0.1143 0.10795,0.2286 0.15875,0.33655 0.0508,0.1143 0.1016,0.2159 0.14605,0.3048 0.0508,0.0889 0.08255,0.15875 0.10795,0.2032 0.0635,0.1143 0.14605,0.1905 0.2413,0.2286 0.1016,0.04445 0.18415,0.04445 0.254,0 0.05715,-0.0254 0.09525,-0.1016 0.10795,-0.2159 0.0127,-0.1143 -0.0064,-0.22225 -0.06985,-0.3175 -0.0635,-0.1016 -0.14605,-0.2413 -0.26035,-0.42545 -0.10795,-0.18415 -0.2286,-0.38735 -0.36195,-0.6159497 -0.13335,-0.2286 -0.27305,-0.4699 -0.42545,-0.73025 -0.1524,-0.254 -0.29845,-0.508 -0.43815,-0.762 -0.1778,-0.3175 -0.3429,-0.61595 -0.48895,-0.89535 -0.1397,-0.2794 -0.254,-0.4953 -0.3302,-0.6477 -0.0508,-0.09525 -0.12065,-0.1524 -0.20955,-0.1778 -0.0889,-0.01905 -0.1651,-0.0127 -0.23495,0.01905 -0.0635,0.0381 -0.10795,0.0889 -0.13335,0.1651 -0.0254,0.0762 -0.0127,0.1651 0.0381,0.26035 0.0762,0.14605 0.19685,0.3556 0.3556,0.6223 0.15875,0.27305 0.32385,0.5588 0.50165,0.8509 0.1778,0.2921 0.34925,0.57785 0.51435,0.8509 0.1651,0.2794 0.28575,0.48895 0.3683,0.6349997 z m 2.311395,0.8763 c 0,-0.0889 -0.0064,-0.22225 -0.0127,-0.3937 -0.0127,-0.17145 -0.0127,-0.34925 -0.0127,-0.53975 -0.0064,-0.1206497 -0.0127,-0.2412997 -0.0127,-0.3682997 0,-0.127 0,-0.23495 0.0063,-0.3302 0.0635,-0.15875 0.1524,-0.31115 0.254,-0.45085 0.1016,-0.1397 0.20955,-0.20955 0.31115,-0.20955 0.06985,0 0.10795,0.06985 0.12065,0.19685 0.0064,0.127 0.0127,0.34925 0.0127,0.66675 0,0.28575 -0.0127,0.5460997 -0.0381,0.7810497 -0.0254,0.23495 -0.0254,0.4445 -0.0127,0.6223 0.0127,0.14605 0.04445,0.2413 0.09525,0.2794 0.0508,0.0381 0.10795,0.05715 0.17145,0.05715 0.0635,0.0063 0.127,-0.0127 0.1905,-0.0508 0.05715,-0.0381 0.08255,-0.13335 0.0762,-0.2794 -0.0127,-0.2159 -0.0127,-0.46355 0.0127,-0.74295 0.01905,-0.2793997 0.01905,-0.5778497 0,-0.8889997 0.05715,-0.17145 0.13335,-0.32385 0.2286,-0.45085 0.0889,-0.127 0.19685,-0.1905 0.3175,-0.18415 0.0381,0 0.0635,0.08255 0.0762,0.254 0.0127,0.17145 0.0127,0.37465 0.0127,0.61595 0,0.23495 -0.0064,0.4762497 -0.0064,0.7302497 -0.0063,0.254 -0.0063,0.4572 0.0064,0.6223 0.0064,0.1651 0.04445,0.27305 0.1143,0.3175 0.06985,0.04445 0.1397,0.0635 0.20955,0.0635 0.0635,0 0.1143,-0.0254 0.1651,-0.0635 0.0508,-0.04445 0.06985,-0.1524 0.06985,-0.3175 -0.0127,-0.29845 -0.01905,-0.6096 -0.0064,-0.9397997 0.0064,-0.3302 0.0064,-0.62865 -0.0064,-0.9017 -0.0127,-0.27305 -0.0381,-0.4953 -0.0889,-0.6731 -0.0508,-0.1778 -0.13335,-0.2667 -0.254,-0.2667 -0.2413,0 -0.4318,0.0635 -0.5715,0.1905 -0.14605,0.127 -0.254,0.2667 -0.3302,0.4064 -0.0381,-0.17145 -0.0889,-0.31115 -0.1524,-0.42545 -0.0635,-0.1143 -0.13335,-0.17145 -0.2159,-0.17145 -0.19685,0 -0.36195,0.05715 -0.48895,0.1778 -0.127,0.12065 -0.22225,0.26035 -0.29845,0.41275 0.0063,-0.0508 0.0127,-0.1016 0.0254,-0.1524 0.0127,-0.0508 0.01905,-0.09525 0.0254,-0.14605 0.0127,-0.14605 -0.0064,-0.24765 -0.05715,-0.29845 -0.0508,-0.05715 -0.1143,-0.08255 -0.1778,-0.08255 -0.0762,-0.00635 -0.14605,0.01905 -0.2159,0.0762 -0.0762,0.0635 -0.1143,0.1651 -0.1143,0.3048 -0.0064,0.254 -0.0127,0.5461 -0.0127,0.8636 -0.0063,0.32385 0,0.65405 0.0127,0.9905997 0,0.1524 0.0063,0.2921 0.01905,0.4191 0.0063,0.13335 0.0127,0.2286 0.0127,0.28575 0,0.127 0.0254,0.2159 0.0762,0.254 0.0508,0.0381 0.1143,0.05715 0.1778,0.0635 0.0635,0 0.127,-0.01905 0.1905,-0.05715 0.0635,-0.0381 0.09525,-0.127 0.09525,-0.2667 z m 5.130796,-0.0063 c 0,0.13335 0.03175,0.22225 0.1016,0.2667 0.06985,0.04445 0.14605,0.0635 0.2286,0.05715 0.0635,0 0.127,-0.0254 0.18415,-0.0762 0.05715,-0.04445 0.0889,-0.127 0.0889,-0.24765 v -0.8382 c 0,-0.2857497 -0.0064,-0.6032497 -0.01905,-0.9524997 -0.0064,-0.1143 -0.0127,-0.24765 -0.0127,-0.3937 0,-0.14605 -0.0064,-0.26035 -0.01905,-0.3429 0,-0.0889 -0.0381,-0.15875 -0.1016,-0.20955 -0.06985,-0.04445 -0.1397,-0.06985 -0.20955,-0.06985 -0.06985,0.00635 -0.13335,0.03175 -0.18415,0.0762 -0.0508,0.0508 -0.0762,0.1143 -0.0762,0.2032 0.0063,0.12065 0.0127,0.27305 0.01905,0.4572 0,0.1905 0.0063,0.36195 0.0063,0.51435 0,0.17145 0.0064,0.3302 0.0064,0.47625 0,0.1397 -0.0064,0.2793997 -0.0064,0.4127497 -0.127,0.0889 -0.2794,0.18415 -0.46355,0.27305 -0.18415,0.0889 -0.3683,0.13335 -0.55245,0.13335 -0.1143,0 -0.2032,-0.0254 -0.2667,-0.0635 -0.06985,-0.04445 -0.1143,-0.14605 -0.13335,-0.29845 -0.0254,-0.1651 -0.0381,-0.3174997 -0.0381,-0.4698997 -0.0064,-0.1524 -0.0064,-0.31115 -0.0064,-0.46355 -0.0063,-0.2032 -0.0063,-0.38735 0.0064,-0.5588 0.0127,-0.17145 0.01905,-0.3048 0.01905,-0.40005 0,-0.1016 -0.0381,-0.1778 -0.1016,-0.22225 -0.0635,-0.04445 -0.13335,-0.0635 -0.20955,-0.0635 -0.06985,0 -0.13335,0.01905 -0.1905,0.0635 -0.05715,0.04445 -0.08255,0.12065 -0.08255,0.22225 0,0.12065 0,0.2667 -0.0127,0.43815 -0.0127,0.17145 -0.0127,0.3556 -0.0127,0.55245 0,0.1524 0,0.31115 0.0064,0.4699 0,0.1523997 0.0127,0.3174997 0.0254,0.4825997 0,0.0889 0.0254,0.18415 0.0635,0.28575 0.0381,0.09525 0.09525,0.18415 0.1651,0.2667 0.06985,0.0762 0.1524,0.14605 0.24765,0.2032 0.0889,0.05715 0.1905,0.0889 0.29845,0.1016 0.2413,0.01905 0.4699,-0.0254 0.6985,-0.127 0.22225,-0.1016 0.40005,-0.20955 0.5334,-0.3175 z m 3.035295,-0.86995 c 0.0508,0.09525 0.1016,0.19685 0.15875,0.31115 0.0508,0.1143 0.10795,0.2286 0.15875,0.33655 0.0508,0.1143 0.1016,0.2159 0.14605,0.3048 0.0508,0.0889 0.08255,0.15875 0.10795,0.2032 0.0635,0.1143 0.14605,0.1905 0.2413,0.2286 0.1016,0.04445 0.18415,0.04445 0.254,0 0.05715,-0.0254 0.09525,-0.1016 0.10795,-0.2159 0.0127,-0.1143 -0.0063,-0.22225 -0.06985,-0.3175 -0.0635,-0.1016 -0.14605,-0.2413 -0.26035,-0.42545 -0.10795,-0.18415 -0.2286,-0.38735 -0.36195,-0.6159497 -0.13335,-0.2286 -0.27305,-0.4699 -0.42545,-0.73025 -0.1524,-0.254 -0.29845,-0.508 -0.43815,-0.762 -0.1778,-0.3175 -0.3429,-0.61595 -0.48895,-0.89535 -0.1397,-0.2794 -0.254,-0.4953 -0.3302,-0.6477 -0.0508,-0.09525 -0.12065,-0.1524 -0.20955,-0.1778 -0.0889,-0.01905 -0.1651,-0.0127 -0.23495,0.01905 -0.0635,0.0381 -0.10795,0.0889 -0.13335,0.1651 -0.0254,0.0762 -0.0127,0.1651 0.0381,0.26035 0.0762,0.14605 0.19685,0.3556 0.3556,0.6223 0.15875,0.27305 0.32385,0.5588 0.50165,0.8509 0.1778,0.2921 0.34925,0.57785 0.51435,0.8509 0.1651,0.2794 0.28575,0.48895 0.3683,0.6349997 z m 2.578094,-1.6573497 c 0.0127,-0.127 -0.0127,-0.2159 -0.06985,-0.2667 -0.05715,-0.0508 -0.12065,-0.0762 -0.1905,-0.0762 -0.0762,0 -0.1524,0.0254 -0.2286,0.0762 -0.0762,0.0508 -0.1143,0.14605 -0.12065,0.27305 0,0.254 -0.01905,0.53975 -0.0508,0.85725 -0.0254,0.3175 -0.0381,0.64135 -0.0254,0.9715497 0.0063,0.1524 0.01905,0.28575 0.03175,0.41275 0.01905,0.127 0.03175,0.22225 0.0381,0.28575 0,0.1143 0.03175,0.19685 0.08255,0.2413 0.0508,0.04445 0.1143,0.06985 0.1778,0.06985 0.0762,0.0063 0.1524,-0.0127 0.22225,-0.05715 0.0635,-0.0381 0.1016,-0.127 0.1016,-0.254 0,-0.1016 -0.0127,-0.2413 -0.0381,-0.4064 -0.0254,-0.1651 -0.03175,-0.33655 -0.03175,-0.52705 -0.0063,-0.1015997 -0.0063,-0.2095497 0,-0.3174997 0,-0.1016 0.0064,-0.20955 0.0127,-0.31115 0.0381,-0.0762 0.08255,-0.1524 0.14605,-0.2413 0.0635,-0.0889 0.13335,-0.1651 0.2159,-0.2413 0.08255,-0.06985 0.1778,-0.127 0.28575,-0.1778 0.1016,-0.0508 0.22225,-0.0762 0.3556,-0.0762 0.1397,0 0.23495,0.0635 0.28575,0.18415 0.04445,0.127 0.0762,0.34925 0.09525,0.6731 0.0127,0.27305 0.03175,0.5270497 0.0635,0.7683497 0.0254,0.2413 0.0508,0.45085 0.06985,0.62865 0.0064,0.1397 0.04445,0.23495 0.1143,0.28575 0.06985,0.0508 0.14605,0.0762 0.22225,0.06985 0.0635,0 0.127,-0.0254 0.1778,-0.0762 0.0508,-0.0508 0.0762,-0.14605 0.0762,-0.2794 -0.0127,-0.2286 -0.04445,-0.4826 -0.09525,-0.762 -0.0508,-0.2793997 -0.0762,-0.5778497 -0.08255,-0.9016997 -0.0127,-0.3429 -0.08255,-0.6223 -0.22225,-0.83185 -0.1397,-0.2032 -0.3429,-0.31115 -0.6223,-0.31115 -0.26035,0 -0.47625,0.05715 -0.64135,0.1651 -0.17145,0.10795 -0.29845,0.22225 -0.37465,0.34925 0,-0.03175 0.0063,-0.0635 0.0063,-0.1016 0,-0.03175 0.0063,-0.0635 0.0127,-0.09525 z m 4.864095,2.5272997 c 0,0.13335 0.03175,0.22225 0.1016,0.2667 0.06985,0.04445 0.14605,0.0635 0.2286,0.05715 0.0635,0 0.127,-0.0254 0.18415,-0.0762 0.05715,-0.04445 0.0889,-0.127 0.0889,-0.24765 v -0.8382 c 0,-0.2857497 -0.0063,-0.6032497 -0.01905,-0.9524997 -0.0063,-0.1143 -0.0127,-0.24765 -0.0127,-0.3937 0,-0.14605 -0.0064,-0.26035 -0.01905,-0.3429 0,-0.0889 -0.0381,-0.15875 -0.1016,-0.20955 -0.06985,-0.04445 -0.1397,-0.06985 -0.20955,-0.06985 -0.06985,0.00635 -0.13335,0.03175 -0.18415,0.0762 -0.0508,0.0508 -0.0762,0.1143 -0.0762,0.2032 0.0063,0.12065 0.0127,0.27305 0.01905,0.4572 0,0.1905 0.0063,0.36195 0.0063,0.51435 0,0.17145 0.0063,0.3302 0.0063,0.47625 0,0.1397 -0.0063,0.2793997 -0.0063,0.4127497 -0.127,0.0889 -0.2794,0.18415 -0.46355,0.27305 -0.18415,0.0889 -0.3683,0.13335 -0.55245,0.13335 -0.1143,0 -0.2032,-0.0254 -0.2667,-0.0635 -0.06985,-0.04445 -0.1143,-0.14605 -0.13335,-0.29845 -0.0254,-0.1651 -0.0381,-0.3174997 -0.0381,-0.4698997 -0.0063,-0.1524 -0.0063,-0.31115 -0.0063,-0.46355 -0.0064,-0.2032 -0.0064,-0.38735 0.0063,-0.5588 0.0127,-0.17145 0.01905,-0.3048 0.01905,-0.40005 0,-0.1016 -0.0381,-0.1778 -0.1016,-0.22225 -0.0635,-0.04445 -0.13335,-0.0635 -0.20955,-0.0635 -0.06985,0 -0.13335,0.01905 -0.1905,0.0635 -0.05715,0.04445 -0.08255,0.12065 -0.08255,0.22225 0,0.12065 0,0.2667 -0.0127,0.43815 -0.0127,0.17145 -0.0127,0.3556 -0.0127,0.55245 0,0.1524 0,0.31115 0.0063,0.4699 0,0.1523997 0.0127,0.3174997 0.0254,0.4825997 0,0.0889 0.0254,0.18415 0.0635,0.28575 0.0381,0.09525 0.09525,0.18415 0.1651,0.2667 0.06985,0.0762 0.1524,0.14605 0.24765,0.2032 0.0889,0.05715 0.1905,0.0889 0.29845,0.1016 0.2413,0.01905 0.4699,-0.0254 0.6985,-0.127 0.22225,-0.1016 0.40005,-0.20955 0.5334,-0.3175 z m 2.285995,-2.6669997 c 0,0.0889 0.06985,0.1905 0.22225,0.2921 0.1524,0.10795 0.33655,0.19685 0.56515,0.2667 -0.0889,0.01905 -0.18415,0.04445 -0.2794,0.08255 -0.09525,0.0381 -0.1778,0.08255 -0.254,0.13335 -0.0762,0.0508 -0.13335,0.10795 -0.18415,0.1778 -0.0508,0.0635 -0.0762,0.1397 -0.0762,0.22225 0,0.0381 0.01905,0.09525 0.05715,0.1778 0.0381,0.08255 0.0762,0.1778 0.12065,0.2794 0.0381,0.1015997 0.0762,0.2158997 0.1143,0.3301997 0.0381,0.1143 0.05715,0.22225 0.05715,0.3302 0,0.1905 -0.0762,0.34925 -0.2286,0.4699 -0.1524,0.12065 -0.36195,0.18415 -0.635,0.18415 -0.0635,0 -0.127,0.0254 -0.2032,0.0889 -0.0762,0.0635 -0.10795,0.127 -0.10795,0.19685 0,0.0508 0.0254,0.1016 0.08255,0.14605 0.0508,0.04445 0.12065,0.06985 0.2032,0.06985 0.45085,0 0.80645,-0.1143 1.06045,-0.33655 0.254,-0.22225 0.38735,-0.51435 0.38735,-0.88265 0,-0.15875 -0.01905,-0.29845 -0.0508,-0.41275 -0.03175,-0.1142997 -0.06985,-0.2158997 -0.10795,-0.2984497 -0.0381,-0.0889 -0.0762,-0.15875 -0.10795,-0.2159 -0.03175,-0.0635 -0.04445,-0.10795 -0.04445,-0.14605 0,-0.06985 0.0254,-0.127 0.08255,-0.17145 0.0508,-0.04445 0.12065,-0.0762 0.20955,-0.09525 0.0889,-0.0254 0.1905,-0.0381 0.3048,-0.04445 0.1143,-0.0127 0.2286,-0.0127 0.34925,-0.0127 0.0889,0 0.1524,-0.03175 0.1905,-0.08255 0.0381,-0.05715 0.0635,-0.12065 0.0635,-0.19685 0,-0.08255 -0.03175,-0.15875 -0.0889,-0.22225 -0.0635,-0.0635 -0.13335,-0.09525 -0.20955,-0.09525 -0.2921,0 -0.52705,-0.0381 -0.69215,-0.1143 -0.1651,-0.0762 -0.24765,-0.127 -0.24765,-0.15875 0,-0.1143 0.0127,-0.22225 0.0508,-0.31115 0.0381,-0.09525 0.0762,-0.1905 0.12065,-0.28575 0.04445,-0.09525 0.08255,-0.19685 0.12065,-0.3048 0.0381,-0.10795 0.05715,-0.23495 0.05715,-0.381 0,-0.1524 -0.04445,-0.2794 -0.127,-0.38735 -0.08255,-0.10795 -0.1905,-0.19685 -0.32385,-0.2667 -0.13335,-0.0762 -0.28575,-0.127 -0.4572,-0.1651 -0.1778,-0.0381 -0.3556,-0.0508 -0.53975,-0.0508 -0.10795,0 -0.18415,0.0254 -0.22225,0.0889 -0.0381,0.0635 -0.05715,0.12065 -0.05715,0.1778 0,0.06985 0.03175,0.127 0.09525,0.17145 0.0635,0.0381 0.13335,0.0635 0.20955,0.0635 0.0889,0 0.18415,0.00635 0.28575,0.0254 0.1016,0.0127 0.1905,0.0381 0.2794,0.0762 0.08255,0.03175 0.1524,0.0762 0.20955,0.127 0.0508,0.0508 0.08255,0.1143 0.08255,0.18415 0,0.1397 -0.01905,0.2667 -0.05715,0.37465 -0.0381,0.1016 -0.0762,0.2032 -0.1143,0.29845 -0.0381,0.0889 -0.0762,0.18415 -0.1143,0.2794 -0.0381,0.09525 -0.0508,0.2032 -0.0508,0.32385 z m 4.902196,1.61925 c 0,0.1587497 -0.0635,0.2984497 -0.19685,0.4127497 -0.13335,0.12065 -0.28575,0.20955 -0.46355,0.2667 0.0063,-0.20955 0.0063,-0.43815 0.0063,-0.6857997 0,-0.24765 0.0063,-0.4953 0.0063,-0.7493 0.27305,0.09525 0.45085,0.20955 0.5334,0.3429 0.0762,0.1397 0.1143,0.27305 0.1143,0.41275 z m -1.69545,-1.7907 c 0,-0.1524 0.0635,-0.28575 0.1778,-0.3937 0.1143,-0.10795 0.26035,-0.18415 0.43815,-0.2286 v 0.4953 c 0,0.1778 0,0.36195 -0.0064,0.5461 -0.1905,-0.0254 -0.33655,-0.08255 -0.4445,-0.15875 -0.10795,-0.0762 -0.1651,-0.15875 -0.1651,-0.26035 z m -0.5969,2.4637997 c 0.0762,0.14605 0.2032,0.28575 0.3937,0.41275 0.18415,0.127 0.42545,0.1905 0.71755,0.1905 h 0.08255 c -0.0064,0.0889 -0.0127,0.17145 -0.0127,0.23495 0,0.0635 -0.0063,0.1143 -0.0063,0.14605 -0.0127,0.1016 0,0.1778 0.03175,0.2286 0.0254,0.0508 0.06985,0.0762 0.127,0.0762 0.0762,0.0063 0.14605,-0.0127 0.20955,-0.0635 0.05715,-0.0508 0.0889,-0.12065 0.1016,-0.20955 -0.0063,-0.0508 -0.0063,-0.12065 -0.0063,-0.2032 v -0.2667 c 0.1651,-0.0381 0.32385,-0.1016 0.47625,-0.1778 0.14605,-0.0762 0.27305,-0.17145 0.381,-0.28575 0.10795,-0.1143 0.19685,-0.2413 0.26035,-0.38735 0.0635,-0.1397 0.09525,-0.2984497 0.09525,-0.4698997 0,-0.127 -0.01905,-0.254 -0.05715,-0.38735 -0.0381,-0.127 -0.09525,-0.254 -0.18415,-0.3683 -0.0889,-0.1143 -0.2159,-0.20955 -0.3683,-0.29845 -0.1524,-0.08255 -0.34925,-0.1397 -0.5842,-0.17145 0,-0.2032 0.0063,-0.4064 0.0063,-0.5969 0,-0.1905 0.0064,-0.3683 0.0127,-0.5334 0.1651,0.00635 0.2794,0.03175 0.3429,0.06985 0.0635,0.0381 0.1397,0.06985 0.22225,0.08255 0.05715,0.01905 0.127,0.0254 0.20955,0.01905 0.08255,-0.00635 0.13335,-0.05715 0.14605,-0.15875 0.0064,-0.0635 -0.0063,-0.12065 -0.03175,-0.18415 -0.03175,-0.0635 -0.0889,-0.10795 -0.1651,-0.1397 -0.0381,-0.0127 -0.08255,-0.0254 -0.14605,-0.04445 -0.0635,-0.0127 -0.127,-0.03175 -0.19685,-0.04445 -0.06985,-0.0127 -0.1397,-0.03175 -0.2032,-0.04445 -0.06985,-0.0127 -0.127,-0.01905 -0.17145,-0.0254 v -0.3175 c 0,-0.1143 -0.0254,-0.1905 -0.0762,-0.2413 -0.0508,-0.04445 -0.1143,-0.0635 -0.19685,-0.0635 -0.0508,0 -0.09525,0.0254 -0.13335,0.0762 -0.03175,0.0508 -0.0508,0.13335 -0.05715,0.24765 v 0.14605 c 0,0.05715 0,0.12065 -0.0063,0.18415 -0.2032,0.0381 -0.37465,0.09525 -0.52705,0.1778 -0.14605,0.08255 -0.2667,0.1778 -0.36195,0.28575 -0.0889,0.1143 -0.15875,0.23495 -0.20955,0.3683 -0.04445,0.1397 -0.06985,0.2794 -0.06985,0.4191 0,0.15875 0.0762,0.3175 0.2286,0.4699 0.1524,0.15875 0.37465,0.254 0.66675,0.2794 0.0508,0.00635 0.09525,0.0127 0.1397,0.01905 0.04445,0.0127 0.0889,0.01905 0.127,0.01905 0,0.2921 0,0.57785 0,0.8636 0,0.2857497 -0.0063,0.5397497 -0.0127,0.7683497 h -0.0635 c -0.1651,0 -0.29845,-0.0381 -0.40005,-0.12065 -0.1016,-0.0762 -0.18415,-0.17145 -0.254,-0.27305 -0.06985,-0.1016 -0.13335,-0.15875 -0.19685,-0.1651 -0.05715,0 -0.127,0.0127 -0.20955,0.04445 -0.0635,0.03175 -0.1016,0.08255 -0.127,0.1524 -0.01905,0.06985 0,0.15875 0.05715,0.26035 z"
     id="text1"
     aria-label="$F_{\mu\nu}$" />
  <g
     transform="matrix(2.82222,0,0,2.82222,3.8760361,18.637139)"
     ns5:version="1.9.0"
     ns5:texconverter="pdflatex"
     ns5:pdfconverter="inkscape"
     ns5:text="$F_{\\mu\\nu}$"
     ns5:preamble="/usr/share/inkscape/extensions/textext/default_packages.tex"
     ns5:scale="8.0"
     ns5:alignment="middle center"
     ns5:stroke-to-path="0"
     id="g7359"
     ns5:jacobian_sqrt="2.82222"
     style="fill:#ebcb8b;fill-opacity:1">
    <defs
       id="id-caf3fa4b-ca17-4e10-b8b6-dacaa8863e27">
      <g
         id="id-f7785682-fcb0-41ba-883f-fcbb11f347d0">
        <g
           id="id-c7f2e5ba-80da-4acb-813b-a8a93b9f7b1e" />
        <g
           id="id-276ea80e-6c87-4b22-bfab-974db25d8c22">
          <path
             d="m 3.015625,-3.234375 h 0.96875 c 0.75,0 0.828125,0.15625 0.828125,0.4375 0,0.078125 0,0.1875 -0.0625,0.5 C 4.71875,-2.25 4.71875,-2.21875 4.71875,-2.1875 c 0,0.078125 0.0625,0.109375 0.109375,0.109375 0.109375,0 0.109375,-0.03125 0.15625,-0.203125 L 5.53125,-4.453125 C 5.5625,-4.5625 5.5625,-4.578125 5.5625,-4.609375 5.5625,-4.625 5.546875,-4.71875 5.4375,-4.71875 5.34375,-4.71875 5.328125,-4.671875 5.296875,-4.5 5.078125,-3.734375 4.859375,-3.546875 4,-3.546875 H 3.09375 l 0.640625,-2.53125 C 3.828125,-6.4375 3.84375,-6.46875 4.28125,-6.46875 h 1.3125 c 1.21875,0 1.453125,0.328125 1.453125,1.09375 0,0.234375 0,0.265625 -0.03125,0.546875 C 7,-4.703125 7,-4.6875 7,-4.65625 c 0,0.046875 0.03125,0.125 0.125,0.125 0.109375,0 0.109375,-0.0625 0.125,-0.25 L 7.453125,-6.515625 C 7.484375,-6.78125 7.4375,-6.78125 7.1875,-6.78125 H 2.296875 c -0.1875,0 -0.296875,0 -0.296875,0.203125 0,0.109375 0.09375,0.109375 0.28125,0.109375 0.375,0 0.65625,0 0.65625,0.171875 0,0.046875 0,0.0625 -0.0625,0.25 L 1.5625,-0.78125 c -0.09375,0.390625 -0.109375,0.46875 -0.90625,0.46875 -0.171875,0 -0.28125,0 -0.28125,0.1875 C 0.375,0 0.5,0 0.53125,0 0.8125,0 1.5625,-0.03125 1.84375,-0.03125 2.171875,-0.03125 3,0 3.328125,0 3.421875,0 3.53125,0 3.53125,-0.1875 3.53125,-0.265625 3.484375,-0.296875 3.484375,-0.296875 3.453125,-0.3125 3.421875,-0.3125 3.203125,-0.3125 c -0.21875,0 -0.265625,0 -0.515625,-0.015625 -0.296875,-0.03125 -0.328125,-0.078125 -0.328125,-0.203125 0,-0.015625 0,-0.078125 0.046875,-0.21875 z m 0,0"
             id="id-cd622e49-9ed7-4822-ab1d-1b8104b8157f" />
        </g>
        <g
           id="id-f0e49906-7e62-453b-8890-ae286b3ce181" />
        <g
           id="id-0a76fccb-750b-4b00-a05c-c0f9b89e7cfb">
          <path
             d="M 0.375,1.125 C 0.34375,1.21875 0.34375,1.265625 0.34375,1.265625 c 0,0.15625 0.125,0.21875 0.234375,0.21875 0.265625,0 0.3125,-0.21875 0.34375,-0.34375 0.015625,-0.03125 0.15625,-0.59375 0.3125,-1.265625 0.21875,0.140625 0.5,0.1875 0.75,0.1875 0.59375,0 0.984375,-0.484375 1,-0.5 0.140625,0.484375 0.625,0.5 0.71875,0.5 0.25,0 0.421875,-0.140625 0.5625,-0.359375 C 4.40625,-0.578125 4.5,-0.96875 4.5,-1 c 0,-0.09375 -0.09375,-0.09375 -0.109375,-0.09375 -0.09375,0 -0.109375,0.03125 -0.15625,0.21875 -0.078125,0.34375 -0.21875,0.75 -0.5,0.75 C 3.546875,-0.125 3.5,-0.28125 3.5,-0.46875 c 0,-0.109375 0.046875,-0.375 0.109375,-0.546875 0.046875,-0.1875 0.109375,-0.46875 0.140625,-0.625 l 0.171875,-0.625 C 3.953125,-2.4375 4.03125,-2.75 4.03125,-2.78125 4.03125,-2.921875 3.921875,-3 3.8125,-3 3.734375,-3 3.59375,-2.96875 3.515625,-2.84375 3.5,-2.796875 3.4375,-2.578125 3.40625,-2.4375 l -0.140625,0.578125 -0.21875,0.875 C 3,-0.8125 3,-0.796875 2.9375,-0.703125 2.71875,-0.390625 2.40625,-0.125 2.015625,-0.125 1.4375,-0.125 1.4375,-0.625 1.4375,-0.75 c 0,-0.171875 0.03125,-0.265625 0.125,-0.640625 0.0625,-0.3125 0.078125,-0.359375 0.15625,-0.625 L 1.8125,-2.40625 c 0.03125,-0.15625 0.109375,-0.421875 0.109375,-0.4375 0,-0.125 -0.109375,-0.234375 -0.25,-0.234375 -0.25,0 -0.3125,0.25 -0.328125,0.328125 z m 0,0"
             id="id-601bd68d-c6e4-4b17-a3a1-52f65d3c3f50" />
        </g>
        <g
           id="id-22b98ad2-1f53-4a36-95b0-166b7f4a8b4a">
          <path
             d="m 1.75,-2.875 c 0,-0.03125 0.015625,-0.0625 0.015625,-0.09375 0,-0.015625 0,-0.109375 -0.109375,-0.109375 -0.015625,0 -0.40625,0.046875 -0.453125,0.046875 C 1.0625,-3.03125 0.9375,-3.015625 0.8125,-3 c -0.109375,0 -0.203125,0.015625 -0.203125,0.15625 0,0.09375 0.09375,0.09375 0.1875,0.09375 0.328125,0 0.328125,0.046875 0.328125,0.109375 0,0.046875 -0.03125,0.1875 -0.0625,0.265625 L 0.71875,-0.96875 C 0.546875,-0.265625 0.515625,-0.125 0.515625,-0.09375 0.515625,0 0.609375,0 0.640625,0 H 0.75 C 1.375,-0.09375 2.265625,-0.421875 3,-1.09375 c 0.953125,-0.84375 1.09375,-1.75 1.09375,-1.75 0,-0.125 -0.09375,-0.234375 -0.234375,-0.234375 -0.25,0 -0.296875,0.203125 -0.359375,0.390625 -0.28125,1 -1.21875,2.0625 -2.40625,2.40625 z m 0,0"
             id="id-5d79c6ba-8de5-490c-8ae1-81ee3fedb485" />
        </g>
      </g>
    </defs>
    <g
       fill="#000000"
       fill-opacity="1"
       id="id-85b957a5-3224-42df-a6a2-9905c88dc783"
       transform="translate(-149.087,-127.984)"
       style="fill:#ebcb8b;fill-opacity:1">
      <g
         transform="translate(148.712,134.765)"
         id="g2308"
         style="fill:#ebcb8b;fill-opacity:1">
        <path
           d="m 3.015625,-3.234375 h 0.96875 c 0.75,0 0.828125,0.15625 0.828125,0.4375 0,0.078125 0,0.1875 -0.0625,0.5 C 4.71875,-2.25 4.71875,-2.21875 4.71875,-2.1875 c 0,0.078125 0.0625,0.109375 0.109375,0.109375 0.109375,0 0.109375,-0.03125 0.15625,-0.203125 L 5.53125,-4.453125 C 5.5625,-4.5625 5.5625,-4.578125 5.5625,-4.609375 5.5625,-4.625 5.546875,-4.71875 5.4375,-4.71875 5.34375,-4.71875 5.328125,-4.671875 5.296875,-4.5 5.078125,-3.734375 4.859375,-3.546875 4,-3.546875 H 3.09375 l 0.640625,-2.53125 C 3.828125,-6.4375 3.84375,-6.46875 4.28125,-6.46875 h 1.3125 c 1.21875,0 1.453125,0.328125 1.453125,1.09375 0,0.234375 0,0.265625 -0.03125,0.546875 C 7,-4.703125 7,-4.6875 7,-4.65625 c 0,0.046875 0.03125,0.125 0.125,0.125 0.109375,0 0.109375,-0.0625 0.125,-0.25 L 7.453125,-6.515625 C 7.484375,-6.78125 7.4375,-6.78125 7.1875,-6.78125 H 2.296875 c -0.1875,0 -0.296875,0 -0.296875,0.203125 0,0.109375 0.09375,0.109375 0.28125,0.109375 0.375,0 0.65625,0 0.65625,0.171875 0,0.046875 0,0.0625 -0.0625,0.25 L 1.5625,-0.78125 c -0.09375,0.390625 -0.109375,0.46875 -0.90625,0.46875 -0.171875,0 -0.28125,0 -0.28125,0.1875 C 0.375,0 0.5,0 0.53125,0 0.8125,0 1.5625,-0.03125 1.84375,-0.03125 2.171875,-0.03125 3,0 3.328125,0 3.421875,0 3.53125,0 3.53125,-0.1875 3.53125,-0.265625 3.484375,-0.296875 3.484375,-0.296875 3.453125,-0.3125 3.421875,-0.3125 3.203125,-0.3125 c -0.21875,0 -0.265625,0 -0.515625,-0.015625 -0.296875,-0.03125 -0.328125,-0.078125 -0.328125,-0.203125 0,-0.015625 0,-0.078125 0.046875,-0.21875 z m 0,0"
           id="id-725df69a-c46d-4fbd-8b03-5503bc76a3d5"
           style="fill:#ebcb8b;fill-opacity:1" />
      </g>
    </g>
    <g
       fill="#000000"
       fill-opacity="1"
       id="id-ee408676-82bc-4968-add6-434325943a90"
       transform="translate(-149.087,-127.984)"
       style="fill:#ebcb8b;fill-opacity:1">
      <g
         transform="translate(155.119,136.259)"
         id="g1799"
         style="fill:#ebcb8b;fill-opacity:1">
        <path
           d="M 0.375,1.125 C 0.34375,1.21875 0.34375,1.265625 0.34375,1.265625 c 0,0.15625 0.125,0.21875 0.234375,0.21875 0.265625,0 0.3125,-0.21875 0.34375,-0.34375 0.015625,-0.03125 0.15625,-0.59375 0.3125,-1.265625 0.21875,0.140625 0.5,0.1875 0.75,0.1875 0.59375,0 0.984375,-0.484375 1,-0.5 0.140625,0.484375 0.625,0.5 0.71875,0.5 0.25,0 0.421875,-0.140625 0.5625,-0.359375 C 4.40625,-0.578125 4.5,-0.96875 4.5,-1 c 0,-0.09375 -0.09375,-0.09375 -0.109375,-0.09375 -0.09375,0 -0.109375,0.03125 -0.15625,0.21875 -0.078125,0.34375 -0.21875,0.75 -0.5,0.75 C 3.546875,-0.125 3.5,-0.28125 3.5,-0.46875 c 0,-0.109375 0.046875,-0.375 0.109375,-0.546875 0.046875,-0.1875 0.109375,-0.46875 0.140625,-0.625 l 0.171875,-0.625 C 3.953125,-2.4375 4.03125,-2.75 4.03125,-2.78125 4.03125,-2.921875 3.921875,-3 3.8125,-3 3.734375,-3 3.59375,-2.96875 3.515625,-2.84375 3.5,-2.796875 3.4375,-2.578125 3.40625,-2.4375 l -0.140625,0.578125 -0.21875,0.875 C 3,-0.8125 3,-0.796875 2.9375,-0.703125 2.71875,-0.390625 2.40625,-0.125 2.015625,-0.125 1.4375,-0.125 1.4375,-0.625 1.4375,-0.75 c 0,-0.171875 0.03125,-0.265625 0.125,-0.640625 0.0625,-0.3125 0.078125,-0.359375 0.15625,-0.625 L 1.8125,-2.40625 c 0.03125,-0.15625 0.109375,-0.421875 0.109375,-0.4375 0,-0.125 -0.109375,-0.234375 -0.25,-0.234375 -0.25,0 -0.3125,0.25 -0.328125,0.328125 z m 0,0"
           id="id-b187ef5f-8afb-45ee-8b87-24fdd2395033"
           style="fill:#ebcb8b;fill-opacity:1" />
      </g>
      <g
         transform="translate(159.963,136.259)"
         id="g4081"
         style="fill:#ebcb8b;fill-opacity:1">
        <path
           d="m 1.75,-2.875 c 0,-0.03125 0.015625,-0.0625 0.015625,-0.09375 0,-0.015625 0,-0.109375 -0.109375,-0.109375 -0.015625,0 -0.40625,0.046875 -0.453125,0.046875 C 1.0625,-3.03125 0.9375,-3.015625 0.8125,-3 c -0.109375,0 -0.203125,0.015625 -0.203125,0.15625 0,0.09375 0.09375,0.09375 0.1875,0.09375 0.328125,0 0.328125,0.046875 0.328125,0.109375 0,0.046875 -0.03125,0.1875 -0.0625,0.265625 L 0.71875,-0.96875 C 0.546875,-0.265625 0.515625,-0.125 0.515625,-0.09375 0.515625,0 0.609375,0 0.640625,0 H 0.75 C 1.375,-0.09375 2.265625,-0.421875 3,-1.09375 c 0.953125,-0.84375 1.09375,-1.75 1.09375,-1.75 0,-0.125 -0.09375,-0.234375 -0.234375,-0.234375 -0.25,0 -0.296875,0.203125 -0.359375,0.390625 -0.28125,1 -1.21875,2.0625 -2.40625,2.40625 z m 0,0"
           id="id-2199ec9b-89fd-487d-a8f8-c0a605329ff7"
           style="fill:#ebcb8b;fill-opacity:1" />
      </g>
    </g>
  </g>
</svg>
